<?xml version="1.0" encoding="utf-8"?>
<!-- Generator: Adobe Illustrator 17.1.0, SVG Export Plug-In . SVG Version: 6.00 Build 0)  -->
<!DOCTYPE svg PUBLIC "-//W3C//DTD SVG 1.1//EN" "http://www.w3.org/Graphics/SVG/1.1/DTD/svg11.dtd">
<svg version="1.1" id="Capa_1" xmlns="http://www.w3.org/2000/svg" xmlns:xlink="http://www.w3.org/1999/xlink" x="0px" y="0px"
	 viewBox="0 0 172.6 270" enable-background="new 0 0 172.6 270" xml:space="preserve">
<g id="_x33_74YX4_1_">
	<g>
		<path fill="#FFFFFE" d="M108,88.6c0.2-0.1,0.2-0.2,0.1-0.3c0-0.2,0-0.4,0-0.7c0.3-0.5,0.1-0.9-0.4-1.2c-0.3-0.3-0.5-0.7-1-0.9
			c-0.4-0.7-1.1-0.7-1.8-0.6c-0.1,0-0.2,0-0.3-0.1c-0.1-0.2-0.2-0.3-0.4-0.1c-0.4,0-0.8,0-1.2-0.1c-0.5-0.5-1-0.3-1.6-0.1
			c-0.4,0-0.8,0-1.2-0.1c-0.2-0.3-0.4-0.3-0.7-0.1c-0.4,0-0.7,0-1.1,0c-0.2-0.2-0.3-0.2-0.5,0c-0.5,0-1.1,0-1.6,0
			c-0.1-0.8,0.4-1.5,0.6-2.2c0.3-1.3,0.8-2.6,0.5-4c-0.6-2.2-2.2-3.6-4.7-3c-2,0.5-3.4,1.8-4.9,3c-0.5,0.4-1.1,0.7-1.4,1.3
			c-0.4,0-0.7-0.1-1-0.2c-0.1-1.8-0.7-3.5-1.6-5c-0.7-1.2-2.4-1.1-3.2,0c-1,1.3-1.7,2.8-2.2,4.4c-1.6,0.2-3.3,0.1-5,0.2
			c-5.1,0.4-10.1,1.2-15,2.3c-6.1,1.3-12,3.1-17.6,5.9c-3.4,1.7-6.5,3.8-9.1,6.6c-4,4.3-5.4,9.4-3.9,15.1c1,3.7,2.5,7.2,5.5,9.9
			c3.2,2.9,6.9,4.6,11.1,5.2c4.4,0.6,8.7,0.5,13-0.5c2.9-0.7,5.5-2,8.1-3.6c0.1-0.1,0.3-0.2,0.4-0.3c0,0,0.1,0,0.3,0
			c0.2,1.6-0.6,2.8-1.5,3.9c-1.5,1.8-3.5,2.5-5.8,2.6c-0.7,0-1.5,0-2.2,0.1c-1.2,0.2-1.8,1.2-1.6,2.4c0.5,3,3.9,6.2,6.9,6.5
			c0.5,0,0.8,0.1,0.6,0.7c-0.5,1.8-0.5,3.7-1.1,5.4c-0.2,0.6-0.4,0.8-1.1,0.8c-3-0.2-6,0.5-9,0.6c-0.7,0-1.4,0.2-2,0.7
			c-0.4-0.1-0.8-0.2-1.2-0.2c-1,0.1-1.3,0.7-0.7,1.5c0.3,0.5,0.3,0.7-0.3,0.8c-0.6,0.1-1.1,0.4-1.1,1.1c0,0.6,0.6,0.8,1.1,0.9
			c0.1,0,0.3,0.1,0.4,0.1c0,0.1,0,0.2,0,0.3c0,0,0,0-0.1,0.1c-0.5,0.3-1.2,0.6-0.9,1.4c0.2,0.6,1,0.8,1.8,0.5c0.2,0,0.3-0.1,0.5-0.1
			c1.6,1.1,3.3,1.1,5.1,1c1.3-0.1,2.5-0.3,3.8-0.6c0.5-0.1,0.5,0.1,0.4,0.5c-0.3,1.1-0.7,2.1-0.9,3.3c-0.6,2-1,4-1.4,6
			c-0.5,2.4-0.8,4.8-0.8,7.2c0,2.6,0.2,5.2,1.2,7.7c0.9,2.3,1.7,4.6,3.2,6.6c1.4,2,3.3,3.4,5.3,4.7c1.4,0.9,2.9,1.6,4.4,2.2
			c0.2,0.1,0.3,0.2,0.4,0.3c-0.2,2.1-0.3,4.3-1.2,6.3c-0.3,0.8-0.8,1.5-1.3,2.2c-0.9,1.3-1.3,2.8-1.4,4.3c-0.4,0.3-0.9,0.5-1.3,1
			c-0.4,0.6-0.7,1.2-0.3,1.8c0.4,0.6,1.1,0.6,1.7,0.4c0.2,0,0.4-0.1,0.6-0.2c0.2,0.5,0.5,0.8,0.8,1.2c-0.1,0.4-0.2,0.8-0.2,1.2
			c0,1.1,0.8,1.6,1.8,1.2c0.4-0.2,0.7-0.6,1.1-0.6c0.4,0.3,0.8,0.4,1.2,0.4c0,0.3,0,0.5,0,0.8c0,0.5,0.1,1.1,0.6,1.3
			c0.6,0.3,1.2,0.1,1.7-0.3c0.5-0.4,0.6-1,1-1.4c4.5-0.4,7.4-2.9,9.2-6.8c0.8-1.7,0.9-3.6,0.7-5.5c-0.1-1-0.2-2.1-0.3-3.1
			c0-0.5,0.1-0.7,0.6-0.7c1.3,0.1,2.6,0.3,3.9,0.4c0.4,0,0.4,0.3,0.4,0.6c-0.2,3.8-0.5,7.5-2.9,10.7c-1,1.4-1.4,3-1.4,4.7
			c-0.5,0.4-1.1,0.6-1.5,1.2c-0.4,0.6-0.7,1.3-0.2,2c0.5,0.7,1.3,0.6,2,0.5c0.2,0,0.4-0.2,0.7-0.1c0.3,0.4,0.6,0.9,1,1.2
			c0.1,0.3-0.1,0.4-0.2,0.6c-0.2,0.7-0.3,1.4,0.4,1.9c0.6,0.5,1.3,0.3,1.9-0.1c0.3-0.2,0.4-0.5,0.8-0.5c0.5,0.3,1,0.5,1.6,0.6
			c0,0.6-0.2,1.1,0,1.7c0.3,0.8,1.1,1,1.8,0.7c0.9-0.4,1.2-1.2,1.7-1.9c4.4-0.2,7.4-2.8,9.7-6.2c1-1.6,1.4-3.4,1.4-5.3
			c0.1-3.4-0.4-6.7-0.8-10c-0.2-1.6-0.3-1.6,1.4-1.8c10-1,19.9-2.3,29.6-4.9c4.9-1.3,9.7-3,14.1-5.7c1.8-1.1,3.5-2.4,4.9-4
			c0.2-0.2,0.3-0.4,0.5-0.6c0.7-1,0.5-1.6-0.7-2.1c-0.8-0.3-1.7-0.3-2.5-0.5c-0.1-1.2-0.5-2.4-1.1-3.4c-0.6-1.1-1.8-1.2-2.6-0.2
			c-0.9,1.1-1.5,2.3-1.8,3.7c-0.4,0.1-0.8,0.1-1.2,0.1c-0.2-1.7-0.9-3.3-2.1-4.5c-0.8-0.8-2.3-0.6-3.4,0.4c-1.4,1.3-1.8,3-2,4.8
			c-2.4,0.2-4.8,0.4-7.2,0.7c-2.1,0.3-4.2,0-6.1-0.9c-2.2-1-4.1-2.6-5.5-4.7c2.1-1.1,4-2.3,5.5-4.1c1.6-1.9,1.2-4.4-0.9-5.7
			c-1.4-0.8-2.9-1.1-4.4-1.4c-2.2-0.4-4.3-0.8-6.5-0.7c-0.6-0.9-0.9-1.9-1.2-2.9c0.9-0.1,1.5-0.7,2.3-1.1c1.7-0.9,3.3-1.9,4.7-3.3
			c1.3-1.3,1.4-2.9,0.5-4.4c-1.3-2.1-3.3-3-5.6-3.4c-2.3-0.4-4.6-0.4-6.8-0.2c-0.4-0.7-0.7-1.4-0.9-2.2c2.2-1.1,4.3-2.4,6.1-4.1
			c2.3-2.1,1.8-5.1-1.1-6.1c-2.8-1-5.8-1.4-8.8-1.4c-0.6-1.4-0.7-3-0.9-4.5c-0.4-3.1,0.1-6.1,0.5-9.1c0.3-2.9,0.6-5.9,0.6-8.8
			c0-0.3,0.1-0.6,0.1-0.9c1.9-0.3,3.9-0.6,5.6-1.7c1.8-1.2,2.3-3.5,1.1-5.4c-1.1-1.8-2.9-2.4-4.6-3.2c-1-0.5-2-1-3.2-1.1
			c-0.1-0.3-0.1-0.6-0.2-0.9c1.3-0.7,2.4-1.6,3.6-2.5c0.1,0,0.1-0.1,0.2-0.1c0.1,0,0.1,0,0.1-0.1c0.2,0,0.3-0.1,0.4-0.3l0,0
			c0.4-0.1,0.8-0.1,0.8-0.7l0,0c0.2,0,0.5,0,0.4-0.3c0.1-0.1,0.1-0.1,0.2-0.2c0.1,0,0.1,0,0.1-0.1c0.1-0.1,0.2-0.2,0.3-0.4
			c0.4-0.1,0.3-0.4,0.3-0.7c0-0.1,0-0.1,0.1-0.2C107.9,88.8,107.9,88.7,108,88.6L108,88.6z"/>
		<path fill="#9C73B0" d="M49.3,148.3c-0.4-0.6-1.1-0.5-1.7-0.5c0-0.1,0-0.2,0-0.3c1.8-0.8,1.8-1.1,0.2-2.4c0.6-0.2,1.3,0.2,1.8-0.3
			c0.5-0.6,0.1-1.1-0.3-1.6c0.6-0.4,1.3-0.6,2-0.7c3-0.1,6-0.8,9-0.6c0.6,0,0.9-0.2,1.1-0.8c0.6-1.8,0.6-3.7,1.1-5.4
			c0.2-0.6,0-0.7-0.6-0.7c-3-0.3-6.4-3.5-6.9-6.5c-0.2-1.2,0.4-2.2,1.6-2.4c0.7-0.1,1.4,0,2.2-0.1c2.3-0.1,4.3-0.8,5.8-2.6
			c0.9-1.1,1.7-2.3,1.5-3.9c-0.2,0-0.2,0-0.3,0c-0.2,0.1-0.3,0.2-0.4,0.3c-2.5,1.6-5.1,2.9-8.1,3.6c-4.3,1-8.7,1.1-13,0.5
			c-4.2-0.6-7.9-2.3-11.1-5.2c-2.9-2.7-4.5-6.2-5.5-9.9c-1.5-5.7-0.2-10.8,3.9-15.1c2.6-2.8,5.7-4.9,9.1-6.6
			c5.6-2.8,11.5-4.6,17.6-5.9c5-1.1,10-1.9,15-2.3c1.7-0.1,3.3-0.1,5-0.2c2.4,0,4.7,0.4,7,0.5c0.3,0.1,0.7,0.3,1,0.2
			c1.5,0.5,2.9,1,4.4,1.6c2,0.8,3.8,2.2,5.4,3.6c0.1,0.1,0.2,0.2,0.3,0.3l0,0l0,0c1.1,1.6,2.4,3,3.1,4.8c0.6,1.5,1.2,3,1.7,4.5
			c0.1,0.3,0.1,0.6,0.2,0.9c0.8,3.8,1,7.6,1.1,11.5c0,0.3-0.1,0.6-0.1,0.9c0,3-0.3,5.9-0.6,8.8c-0.3,3-0.9,6-0.5,9.1
			c0.2,1.5,0.2,3.1,0.9,4.5c0,1.7,0.7,3.3,1.2,4.8c0.6,2.1,1.4,4.2,2.3,6.3c0.1,0.2,0.1,0.4,0.3,0.5c0.1,0.8,0.5,1.5,0.9,2.2
			c0.9,2.6,2.1,5.1,3.1,7.7c0.6,1.4,1.1,2.8,1.6,4.1c0.1,0.2,0.1,0.4,0.3,0.5c0.3,1,0.6,2,1.2,2.9c-0.2,0.9,0.5,1.5,0.8,2.3
			c1,2.4,2.1,4.7,3.5,6.9c0.6,1,1.2,2.1,2.1,2.8c1.4,2.1,3.2,3.6,5.5,4.7c1.9,0.9,3.9,1.2,6.1,0.9c2.4-0.3,4.8-0.5,7.2-0.7
			c2.5-0.2,4.9-0.4,7.4-0.6c0.4,0,0.8,0.1,1.2-0.1c1.8,0,3.6,0,5.4,0c0.8,0.2,1.7,0.2,2.5,0.5c1.1,0.4,1.4,1.1,0.7,2.1
			c-0.1,0.2-0.3,0.4-0.5,0.6c-1.4,1.6-3.1,2.9-4.9,4c-4.4,2.7-9.2,4.4-14.1,5.7c-9.7,2.6-19.6,3.9-29.6,4.9
			c-1.6,0.2-1.5,0.1-1.4,1.8c0.4,3.3,0.9,6.7,0.8,10c-0.1,1.9-0.4,3.7-1.4,5.3c-2.3,3.5-5.3,6-9.7,6.2c0-0.4,0-0.9-0.1-1.3
			c-0.1-0.9-1.2-1.3-2-0.9c-0.7,0.4-1.2,1-1.5,1.8c-0.6-0.1-1.1-0.3-1.6-0.6c0.3-0.4,0.6-0.9,0.6-1.4c0.1-0.7,0.2-1.4-0.7-1.9
			c-0.8-0.4-1.3,0-1.9,0.4c-0.4,0.2-0.6,0.6-0.9,0.9c-0.4-0.3-0.7-0.8-1-1.2c0.4-0.4,0.9-0.8,1.2-1.2c0.7-1.2,0-2.3-1.3-2.3
			c-0.3,0-0.5,0-0.8,0.1c0.1-1.7,0.4-3.3,1.4-4.7c2.3-3.2,2.7-6.9,2.9-10.7c0-0.3,0-0.6-0.4-0.6c-1.3-0.1-2.6-0.2-3.9-0.4
			c-0.5-0.1-0.6,0.2-0.6,0.7c0.1,1,0.2,2.1,0.3,3.1c0.2,1.9,0.1,3.8-0.7,5.5c-1.8,3.9-4.7,6.5-9.2,6.8c0-0.3-0.1-0.6-0.1-0.9
			c-0.1-0.9-0.7-1.4-1.6-1.1c-0.8,0.3-1.2,0.9-1.6,1.6c-0.4-0.1-0.9-0.2-1.2-0.4c0.2-0.6,0.5-1.2,0.5-1.9c0-1-1.2-1.4-1.9-1
			c-0.5,0.3-0.9,0.7-1.3,1.1c-0.4-0.3-0.7-0.7-0.8-1.2c0.1,0,0.2-0.1,0.2-0.1c0.7-0.6,1.3-1.3,1-2.2c-0.3-0.9-1.2-0.8-2-0.8
			c0.1-1.6,0.5-3,1.4-4.3c0.5-0.7,0.9-1.4,1.3-2.2c0.9-2,1-4.2,1.2-6.3c1.2,0.2,2.3,0.8,3.5,1.1c1,0.2,2,0.5,3,0.9
			c0.8,0.3,1.5,0.1,2.2-0.2c4.4-2.1,7.4-5.6,9.1-10.1c1.5-3.8,1.9-7.7,1.7-11.8c-0.2-3.7-1-7.3-2.8-10.7c-0.7-1.4-1.7-2.6-2.8-3.8
			c-0.3-0.3-0.5-0.4-0.7,0c-1,1.7-2.3,3.2-3.6,4.6c-1.6,1.6-3.3,3.3-5.4,4.3c-0.8,0.3-1.6,0.6-2.4,0.6c0.2-0.5,0.1-0.9-0.3-1.2
			c-0.4-0.3-0.8-0.2-1.2,0c-0.2,0.1-0.4,0.3-0.6,0.4c-0.1,0-0.2-0.1-0.3-0.1c0.1-0.1,0.2-0.2,0.3-0.3c0.2-0.4,0.6-0.7,0.3-1.2
			c-0.3-0.5-0.7-0.6-1.2-0.6c0,0-0.1-0.1-0.1-0.1c0-0.2,0.1-0.2,0.3-0.3c0.4-0.2,0.7-0.5,0.7-1c0-0.5-0.3-0.8-0.8-0.9
			c-0.1,0-0.2-0.1-0.3-0.2c0.6-1.4,1.9-2.1,2.9-3c1.6-1.3,3.1-2.6,4.8-3.8c0.6-0.4,1.3-0.6,1.9-1.2c-5.7-2.4-11.2-2.8-16.6,0.6
			c-1.4,0.8-2.5,1.9-3.5,3.2c0.2-1.1,0.6-2.2,0.9-3.3c0.1-0.4,0.1-0.6-0.4-0.5c-1.2,0.3-2.5,0.5-3.8,0.6c-1.8,0.1-3.5,0.1-5.1-1
			C49.1,149.2,49.7,148.9,49.3,148.3z M106.1,153.1c0-2.1-1.5-3.6-3.4-3.6c-1.7,0-3.2,1.6-3.2,3.4c0,2.1,1.4,3.6,3.4,3.5
			C104.8,156.5,106.1,155.1,106.1,153.1z M64.1,87.8c-0.3-1.1-1.3-1.4-2.2-0.8c-1.1,0.8-1.7,2.7-1.2,4c0.4,1.2,1.4,1.5,2.4,0.7
			c0.9-0.8,1.1-1.8,1.3-3C64.2,88.4,64.1,88.1,64.1,87.8z M98.9,139.5c-1.3,0-2.1,0.9-2.1,2.3c0,1.2,1,2.2,2.2,2.2
			c1.3,0,2.2-1,2.2-2.3C101.2,140.4,100.3,139.5,98.9,139.5z M69.5,88.7c-0.8-0.2-1.6,0.3-2.1,1.2c-0.5,0.9-0.7,1.8-0.6,2.8
			c0.1,0.6,0.3,1.1,0.9,1.4c0.6,0.2,1.2-0.1,1.6-0.5c0.7-0.7,1.1-1.7,1.1-2.8C70.5,89.6,70.1,88.8,69.5,88.7z M95,150.9
			c1,0,2-1,2.1-2c0-1.2-1.4-2.5-2.6-2.5c-1.2,0-2,0.9-2,2.1C92.5,149.7,93.6,150.9,95,150.9z M97.1,134.1c0.8,0,1.5-0.7,1.5-1.6
			c0-0.8-0.6-1.4-1.4-1.4c-0.9,0-1.4,0.5-1.4,1.4C95.8,133.5,96.3,134.1,97.1,134.1z M92.4,139.5c-0.7,0-1.1,0.4-1,1
			c0,0.6,0.4,1.1,1,1.1c0.6,0,1-0.4,1-1.1C93.3,139.9,93.1,139.5,92.4,139.5z"/>
		<path fill="#D3B2D6" d="M69,162.8c-0.1,0-0.2-0.1-0.3-0.1c-0.4,0.1-0.8,0.2-1.2,0.3c-0.4,0.1-0.6-0.3-0.7-0.5
			c-0.2-0.4-0.1-0.8,0.2-1.1c0.2-0.2,0.8-0.5,0.2-0.9c-0.5-0.3-1-0.4-1-1.1c0.1-0.8,0.7-0.9,1.2-1.1c0.1,0,0.3-0.1,0.4-0.2
			c0.6-1.4,1.9-2.1,2.9-3c1.6-1.3,3.1-2.6,4.8-3.8c0.6-0.4,1.3-0.6,1.9-1.2c-5.7-2.4-11.2-2.8-16.6,0.6c-1.4,0.8-2.5,1.9-3.5,3.2
			c-0.6,2-1,4-1.4,6c-0.5,2.4-0.8,4.8-0.8,7.2c0,2.6,0.2,5.2,1.2,7.7c0.9,2.3,1.7,4.6,3.2,6.6c1.4,2,3.3,3.4,5.3,4.7
			c1.4,0.9,2.9,1.6,4.4,2.2c0.2,0.1,0.3,0.2,0.4,0.3c1.2,0.2,2.3,0.8,3.5,1.1c1,0.2,2,0.5,3,0.9c0.8,0.3,1.5,0.1,2.2-0.2
			c4.4-2.1,7.4-5.6,9.1-10.1c1.5-3.8,1.9-7.7,1.7-11.8c-0.2-3.7-1-7.3-2.8-10.7c-0.7-1.4-1.7-2.6-2.8-3.8c-0.3-0.3-0.5-0.4-0.7,0
			c-1,1.7-2.3,3.2-3.6,4.6c-1.6,1.6-3.3,3.3-5.4,4.3c-0.8,0.3-1.6,0.6-2.4,0.6c-0.1,0.1-0.2,0.2-0.2,0.4c-0.5,0.6-1.5,1-1.9,0.6
			C68.4,164,68.7,163.4,69,162.8z"/>
		<path fill="#F7DA6C" d="M106.9,143.8c0.9,2.6,2.1,5.1,3.1,7.7c0.6,1.4,1.1,2.8,1.6,4.1c0.1,0.2,0.1,0.4,0.3,0.5
			c0.9-0.1,1.5-0.7,2.3-1.1c1.7-0.9,3.3-1.9,4.7-3.3c1.3-1.3,1.4-2.9,0.5-4.4c-1.3-2.1-3.3-3-5.6-3.4
			C111.5,143.6,109.2,143.5,106.9,143.8z"/>
		<path fill="#F4982C" d="M113.1,159c-0.2,0.9,0.5,1.5,0.8,2.3c1,2.4,2.1,4.7,3.5,6.9c0.6,1,1.2,2.1,2.1,2.8c2.1-1.1,4-2.3,5.5-4.1
			c1.6-1.9,1.2-4.4-0.9-5.7c-1.4-0.8-2.9-1.1-4.4-1.4C117.5,159.3,115.4,158.9,113.1,159z"/>
		<path fill="#F4982C" d="M102.3,130c0,1.7,0.7,3.3,1.2,4.8c0.6,2.1,1.4,4.2,2.3,6.3c0.1,0.2,0.1,0.4,0.3,0.5
			c2.2-1.1,4.3-2.4,6.1-4.1c2.3-2.1,1.8-5.1-1.1-6.1C108.2,130.3,105.3,130,102.3,130z"/>
		<path fill="#F4982C" d="M96.1,84.7c0.1,0.1,0.2,0.2,0.3,0.3c0,0,0,0,0,0c1.1,1.6,2.4,3,3.1,4.8c0.6,1.5,1.2,3,1.7,4.5
			c1.3-0.7,2.4-1.6,3.6-2.5c0.1,0,0.1-0.1,0.2-0.1c0.1,0,0.1,0,0.1-0.1c0-0.2,0.2-0.3,0.4-0.3c0,0,0,0,0,0c0.2-0.3,0.6-0.5,0.8-0.7
			c0,0,0,0,0,0c0.1-0.2,0.2-0.3,0.4-0.3c0.1-0.1,0.1-0.1,0.2-0.2c0,0,0.1-0.1,0.1-0.1c0.1-0.1,0.2-0.2,0.3-0.4
			c0-0.3,0.1-0.5,0.3-0.7c0-0.1,0-0.1,0.1-0.2c0-0.1,0.1-0.1,0.1-0.2c0,0,0,0,0,0c0-0.1,0-0.2,0.1-0.3c0-0.2,0-0.4,0-0.7
			c-0.1-0.4-0.3-0.8-0.4-1.2c-0.3-0.3-0.5-0.7-1-0.9c-0.6-0.2-1.2-0.4-1.8-0.6c-0.1,0-0.2,0-0.3,0c-0.1,0.1-0.3,0-0.4-0.1
			c-0.4,0-0.8,0-1.2-0.1c-0.5,0.1-1-0.1-1.6-0.1c-0.4,0-0.8,0-1.2-0.1c-0.2,0.1-0.5,0.1-0.7-0.1c-0.4,0-0.7,0-1.1,0
			c-0.2,0-0.3,0-0.5,0c-0.5,0-1.1,0-1.6,0C96.3,84.6,96.2,84.6,96.1,84.7z"/>
		<path fill="#F7DA6C" d="M101.5,95.3c0.8,3.8,1,7.6,1.1,11.5c1.9-0.3,3.9-0.6,5.6-1.7c1.8-1.2,2.3-3.5,1.1-5.4
			c-1.1-1.8-2.9-2.4-4.6-3.2C103.7,95.9,102.6,95.3,101.5,95.3z"/>
		<path fill="#F7DA6C" d="M96.1,84.7c0.1-0.1,0.1-0.2,0.2-0.3c-0.1-0.8,0.4-1.5,0.6-2.2c0.3-1.3,0.8-2.6,0.5-4
			c-0.6-2.2-2.2-3.6-4.7-3c-2,0.5-3.4,1.8-4.9,3c-0.5,0.4-1.1,0.7-1.4,1.3c1.5,0.5,2.9,1,4.4,1.6C92.7,82,94.4,83.4,96.1,84.7z"/>
		<path fill="#F7DA6C" d="M138.2,175.9c2.5-0.2,4.9-0.4,7.4-0.6c-0.2-1.7-0.9-3.3-2.1-4.5c-0.8-0.8-2.3-0.6-3.4,0.4
			C138.8,172.4,138.4,174.1,138.2,175.9z"/>
		<path fill="#F29A33" d="M78.3,78.8c2.4,0,4.7,0.4,7,0.5c-0.1-1.8-0.7-3.5-1.6-5c-0.7-1.2-2.4-1.1-3.2,0
			C79.4,75.7,78.8,77.2,78.3,78.8z"/>
		<path fill="#F29A33" d="M146.8,175.2c1.8,0,3.6,0,5.4,0c-0.1-1.2-0.5-2.4-1.1-3.4c-0.6-1.1-1.8-1.2-2.6-0.2
			C147.7,172.6,147,173.8,146.8,175.2z"/>
		<path fill="#F29A33" d="M89.5,215.2c0.3-0.4,0.6-0.9,0.6-1.4c0.1-0.7,0.2-1.4-0.7-1.9c-0.8-0.4-1.3,0-1.9,0.4
			c-0.4,0.2-0.6,0.6-0.9,0.9c0.1,0.3-0.1,0.4-0.2,0.6c-0.2,0.7-0.3,1.4,0.4,1.9c0.6,0.5,1.3,0.3,1.9-0.1
			C89,215.5,89.1,215.2,89.5,215.2z"/>
		<path fill="#F29A33" d="M94.6,216.2c0-0.4,0-0.9-0.1-1.3c-0.1-0.9-1.2-1.3-2-0.9c-0.7,0.4-1.2,1-1.5,1.8c0,0.6-0.2,1.1,0,1.7
			c0.3,0.8,1.1,1,1.8,0.7C93.8,217.7,94.2,216.9,94.6,216.2z"/>
		<path fill="#F29A33" d="M85.6,212c0.4-0.4,0.9-0.8,1.2-1.2c0.7-1.2,0-2.3-1.3-2.3c-0.3,0-0.5,0-0.8,0.1c-0.5,0.4-1.1,0.6-1.5,1.2
			c-0.4,0.6-0.7,1.3-0.2,2c0.5,0.7,1.3,0.6,2,0.5C85.1,212.1,85.3,211.9,85.6,212z"/>
		<path fill="#F29A33" d="M70,207.5c0.2-0.6,0.5-1.2,0.5-1.9c0-1-1.2-1.4-1.9-1c-0.5,0.3-0.9,0.7-1.3,1.1c-0.1,0.4-0.2,0.8-0.2,1.2
			c0,1.1,0.8,1.6,1.8,1.2C69.3,207.9,69.6,207.5,70,207.5z"/>
		<path fill="#F29A33" d="M74.5,208.3c0-0.3-0.1-0.6-0.1-0.9c-0.1-0.9-0.7-1.4-1.6-1.1c-0.8,0.3-1.2,0.9-1.6,1.6c0,0.3,0,0.5,0,0.8
			c0,0.5,0.1,1.1,0.6,1.3c0.6,0.3,1.2,0.1,1.7-0.3C74,209.4,74.1,208.8,74.5,208.3z"/>
		<path fill="#F29A33" d="M66.5,204.6c0.1,0,0.2-0.1,0.2-0.1c0.7-0.6,1.3-1.3,1-2.2c-0.3-0.9-1.2-0.8-2-0.8c-0.4,0.3-0.9,0.5-1.3,1
			c-0.4,0.6-0.7,1.2-0.3,1.8c0.4,0.6,1.1,0.6,1.7,0.4C66,204.7,66.3,204.6,66.5,204.6z"/>
		<path fill="#F09B3C" d="M47.5,147.5c1.8-0.8,1.8-1.1,0.2-2.4c0.6-0.2,1.3,0.2,1.8-0.3c0.5-0.6,0.1-1.1-0.3-1.6
			c-0.4-0.1-0.8-0.2-1.2-0.2c-1,0.1-1.3,0.7-0.7,1.5c0.3,0.5,0.3,0.7-0.3,0.8c-0.6,0.1-1.1,0.4-1.1,1.1c0,0.6,0.6,0.8,1.1,0.9
			C47.2,147.4,47.4,147.5,47.5,147.5z"/>
		<path fill="#F09B3C" d="M48.9,149.7c0.2-0.4,0.7-0.8,0.3-1.4c-0.4-0.6-1.1-0.5-1.7-0.5c0,0,0,0-0.1,0.1c-0.5,0.3-1.2,0.6-0.9,1.4
			c0.2,0.6,1,0.8,1.8,0.5C48.6,149.7,48.8,149.7,48.9,149.7z"/>
		<path fill="#F7DA6C" d="M104.9,85c0.6,0.2,1.2,0.4,1.8,0.6C106.2,84.8,105.6,84.8,104.9,85z"/>
		<path fill="#F7DA6C" d="M101.4,84.6c0.5,0,1,0.3,1.6,0.1C102.5,84.3,101.9,84.5,101.4,84.6z"/>
		<path fill="#F7DA6C" d="M107.6,86.4c0.1,0.4,0.3,0.8,0.4,1.2C108.3,87.1,108.2,86.7,107.6,86.4z"/>
		<path fill="#F7DA6C" d="M106.4,90.7c-0.3,0.2-0.7,0.3-0.8,0.7C106,91.4,106.4,91.3,106.4,90.7z"/>
		<path fill="#F7DA6C" d="M99.5,84.5c0.2,0.2,0.5,0.2,0.7,0.1C100,84.3,99.7,84.3,99.5,84.5z"/>
		<path fill="#F7DA6C" d="M107.8,89c-0.2,0.2-0.3,0.4-0.3,0.7C107.9,89.6,107.8,89.3,107.8,89z"/>
		<path fill="#F7DA6C" d="M106.9,90.4c-0.2,0-0.4,0.1-0.4,0.3C106.7,90.7,106.9,90.7,106.9,90.4z"/>
		<path fill="#F7DA6C" d="M104.2,84.8c0.1,0.1,0.2,0.2,0.4,0.1C104.5,84.7,104.4,84.6,104.2,84.8z"/>
		<path fill="#F7DA6C" d="M105.5,91.4c-0.2,0-0.3,0.1-0.4,0.3C105.4,91.7,105.5,91.6,105.5,91.4z"/>
		<path fill="#F7DA6C" d="M97.9,84.5c0.2,0,0.3,0,0.5,0C98.2,84.3,98.1,84.3,97.9,84.5z"/>
		<path fill="#F7DA6C" d="M108,88.3c0,0.1,0,0.2-0.1,0.3C108.2,88.5,108.2,88.4,108,88.3z"/>
		<path fill="#F7DA6C" d="M108,88.6c0,0.1-0.1,0.1-0.1,0.2C107.9,88.8,107.9,88.7,108,88.6z"/>
		<path fill="#F7DA6C" d="M105,91.8c-0.1,0-0.1,0.1-0.2,0.1C104.9,91.9,105,91.8,105,91.8z"/>
		<path fill="#F7DA6C" d="M107.2,90c0,0-0.1,0.1-0.1,0.1C107.2,90.1,107.2,90.1,107.2,90z"/>
		<path fill="#D3B2D6" d="M102.9,156.5c1.9,0,3.2-1.4,3.2-3.4c0-2.1-1.5-3.6-3.4-3.6c-1.7,0-3.2,1.6-3.2,3.4
			C99.5,155,100.9,156.5,102.9,156.5z"/>
		<path fill="#160F14" d="M64.2,88.7c-0.1-0.3-0.1-0.6-0.2-0.9c-0.3-1.1-1.3-1.4-2.2-0.8c-1.1,0.8-1.7,2.7-1.2,4
			c0.4,1.2,1.4,1.5,2.4,0.7C63.8,90.9,64.1,89.9,64.2,88.7z"/>
		<path fill="#D3B2D6" d="M101.2,141.8c0-1.4-0.9-2.3-2.3-2.3c-1.3,0-2.1,0.9-2.1,2.3c0,1.2,1,2.2,2.2,2.2
			C100.3,144.1,101.2,143.1,101.2,141.8z"/>
		<path fill="#160F14" d="M70.5,90.7c0-1.1-0.4-1.8-1-2c-0.8-0.2-1.6,0.3-2.1,1.2c-0.5,0.9-0.7,1.8-0.6,2.8c0.1,0.6,0.3,1.1,0.9,1.4
			c0.6,0.2,1.2-0.1,1.6-0.5C70.1,92.8,70.5,91.8,70.5,90.7z"/>
		<path fill="#D3B2D6" d="M92.5,148.4c0,1.3,1.1,2.4,2.5,2.5c1,0,2-1,2.1-2c0-1.2-1.4-2.5-2.6-2.5C93.3,146.4,92.5,147.2,92.5,148.4
			z"/>
		<path fill="#F09B3C" d="M67.9,158.1c-0.1,0.1-0.3,0.1-0.4,0.2c-0.6,0.2-1.2,0.3-1.2,1.1c0,0.8,0.5,0.8,1,1.1
			c0.6,0.4,0,0.6-0.2,0.9c-0.3,0.3-0.4,0.7-0.2,1.1c0.1,0.3,0.3,0.6,0.7,0.5c0.4-0.1,0.8-0.2,1.2-0.3c0.1-0.1,0.2-0.2,0.3-0.3
			c0.2-0.4,0.6-0.7,0.3-1.2c-0.3-0.5-0.7-0.6-1.2-0.6c0,0.2-0.1,0.3-0.3,0.2c-0.1,0-0.2-0.1-0.2-0.2c0.1-0.2,0.3-0.1,0.4-0.1
			c0-0.2,0.1-0.2,0.3-0.3c0.4-0.2,0.7-0.5,0.7-1c0-0.5-0.3-0.8-0.8-0.9C68.1,158.2,68,158.1,67.9,158.1z"/>
		<path fill="#D3B2D6" d="M95.8,132.6c0,0.9,0.5,1.5,1.3,1.5c0.8,0,1.5-0.7,1.5-1.6c0-0.8-0.6-1.4-1.4-1.4
			C96.2,131.2,95.8,131.6,95.8,132.6z"/>
		<path fill="#F09B3C" d="M69,162.8c-0.4,0.6-0.7,1.2,0,1.8c0.4,0.4,1.5,0,1.9-0.6c0.1-0.1,0.2-0.2,0.2-0.4c0.2-0.5,0.1-0.9-0.3-1.2
			c-0.4-0.3-0.8-0.2-1.2,0C69.5,162.5,69.2,162.7,69,162.8z"/>
		<path fill="#D3B2D6" d="M93.4,140.5c-0.1-0.6-0.3-1-1-1c-0.7,0-1.1,0.4-1,1c0,0.6,0.4,1.1,1,1.1C92.9,141.6,93.4,141.2,93.4,140.5
			z"/>
		<polygon fill="#F7DA6C" points="96.5,85.1 96.5,85 96.4,85.1 		"/>
		<path fill="#9C73B0" d="M68,160.4c-0.2,0-0.3-0.1-0.4,0.1c0,0,0.1,0.1,0.2,0.2C68,160.8,68.1,160.7,68,160.4
			C68.1,160.5,68.1,160.4,68,160.4z"/>
	</g>
</g>
</svg>
