<?xml version="1.0" encoding="utf-8"?>
<!-- Generator: Adobe Illustrator 17.1.0, SVG Export Plug-In . SVG Version: 6.00 Build 0)  -->
<!DOCTYPE svg PUBLIC "-//W3C//DTD SVG 1.1//EN" "http://www.w3.org/Graphics/SVG/1.1/DTD/svg11.dtd">
<svg version="1.1" id="Capa_1" xmlns="http://www.w3.org/2000/svg" xmlns:xlink="http://www.w3.org/1999/xlink" x="0px" y="0px"
	 viewBox="0 0 172.6 270" enable-background="new 0 0 172.6 270" xml:space="preserve">
<path fill="#3FB2A5" d="M29.3,202.9c0-1.2,0.4-2.3,1.1-3.3c0.8-1.3,1.1-2.8,1.2-4.3c0.1-1.5,0-3.1,0.3-4.6c0.1-0.4-0.2-0.6-0.5-0.7
	c-2.2-1.3-4.3-2.8-6.1-4.6c-3.1-3.1-5-6.8-5.9-11.1c-1.5-7.3-2.3-14.7-3.1-22.1c-0.6-5.7-1.1-11.3-1.5-17c0-0.8-0.1-1.5-0.2-2.3
	c0,0,0,0,0,0c0-0.1,0-0.3,0.1-0.4c1.5-0.7,2.9-1.7,4.2-2.7c0.7-0.6,1.2-1.2,1-2.1c-0.2-1.1-1-1.7-2-1.9c-1.2-0.2-2.4-0.4-3.6-0.3
	c-0.2-1.7-0.3-3.5-0.3-5.2c2.1-0.7,4.2-1.6,5.9-3.2c1.3-1.1,1-2.9-0.5-3.6c-0.4-0.2-0.8-0.3-1.2-0.4c-1.5-0.2-3-0.3-4.4-0.3
	c-0.2-1.6-0.2-3.2-0.2-4.8c2.1-0.3,4-1.2,5.8-2.4c1.5-1,1-2.5,0.1-3.4c-0.5-0.5-1.2-0.8-1.8-1c-1.4-0.6-2.8-0.9-4.2-1.3
	c0-1.4,0-2.8,0.2-4.3c0.3,0.1,0.6,0.1,0.9,0.2c1.3,0.4,2.7,0.9,4.1,0.8c0.9-0.1,1.7-0.4,2.2-1.2c0.5-0.9,0.3-1.7-0.2-2.4
	c-1.2-1.5-2.6-2.9-4.3-4c0.6-1.2,1.5-2.1,2.6-2.8c1,1,2,2,3.3,2.5c0.8,0.3,1.5,0.2,2.1-0.3c0.6-0.5,0.5-1.1,0.4-1.8
	c-0.3-1.1-0.8-2.1-1.3-3.1c3.5-1.5,7.2-1.7,11-1.4c4.6,0.3,9,1.4,13.2,3.1c4.3,1.8,8.3,4.2,11.8,7.3c2.2,2,3.3,4.4,3.1,7.4
	c-0.1,2.5-1,4.7-2.4,6.7c-1.4,1.9-3.3,2.6-5.5,3c-3.2,0.6-6.5,1-9.8,0.9c-4-0.1-7.9-0.6-11.7-1.8c-0.5-0.1-0.9-0.2-1.4-0.3
	c-0.1,0-0.3,0-0.4,0.1c-0.1,0.2,0,0.3,0.2,0.4c0.7,0.5,1.4,0.9,2.1,1.2c1.1,0.5,2.3,0.9,3.1,1.8c1,1,1,2,0.1,3
	c-1.3,1.4-3,2.1-4.8,2.8c-0.5,0.2-0.7,0.4-0.6,1c0.8,5.3,1.8,10.5,3,15.7c0.5,2.2,1,4.4,1.9,6.4c0.1,0.2,0.1,0.4,0.2,0.5
	c0.9,1.6,1.1,1.7,2.3,0.5c0.6-0.6,1.2-1.3,2-1.7c1,1.6,2.1,3.1,3.3,4.5c1.7,1.9,3.3,3.8,5.5,5.2c2.1,1.3,4.1,0.7,4.9-1.6
	c0.7-1.9,0.7-3.9,0.6-6c-0.2-2.8-1-5.4-2.2-7.9c-0.3-0.5-0.7-1-0.8-1.6c2-0.9,4.1-1.7,6.2-2.2c1.6,3.5,3.5,6.9,5.5,10.2
	c1.5,2.4,3,4.7,4.9,6.9c0.6,0.6,1.3,1.1,2.1,1.2c1.8,0.2,3-1.3,3.3-2.8c0.4-1.8,0.4-3.7,0.4-5.6c0.1-3.7,0.2-7.5-0.1-11.3
	c1.8,0,3.5,0.3,5.2,0.6c-0.2,4.5,0,8.9,0.8,13.3c0.3,1.8,0.7,3.5,1.9,5c1,1.2,2.4,1.6,3.9,1.1c1.7-0.6,2.6-1.9,3.3-3.4
	c1.4-3.2,2.6-6.4,3.9-9.6c0.2-0.5,0.3-1.1,0.8-1.5c1.7,0.9,3.4,1.7,4.9,2.9c-0.3,0.4-0.5,0.8-0.8,1.1c-2.9,4-4.9,8.4-5.8,13.2
	c-0.4,2,0.3,3.4,2.2,4.1c1.5,0.6,3,0.1,4.4-0.5c3.8-1.8,7.3-4,10.4-6.8c1.1,1.3,2,2.8,2.9,4.3c-1.2,1.1-2.4,2.2-3.4,3.5
	c-1.2,1.5-2.4,3-3.1,4.9c-0.6,1.7-0.2,3.5,1.2,4.4c1.2,0.8,2.5,0.5,3.7,0.1c2.5-0.9,4.8-1.9,7.1-3.3c0.7,0.7,1.2,1.6,1.7,2.5
	c2.5,3.8,5.2,7.4,8.4,10.6c2.4,2.4,5,4.5,8.2,5.7c2.7,1,5.4,1.2,8.1,0.1c0.2-0.1,0.4-0.1,0.5-0.2c0.8,0.9,1.9,1.5,3.1,1.9
	c0.7,0.3,1.3-0.1,1.5-0.9c0.2-1.4-0.1-2.6-0.9-3.7c0.4-0.6,0.9-1,1.3-1.5c0.2,0.1,0.4,0.2,0.5,0.3c0.7,0.5,1.4,1.1,2.2,1.3
	c1,0.4,1.6,0,1.7-1c0.1-1.7-0.3-3.2-1.4-4.5c0.1-0.6,0.5-0.9,0.9-1.4c0.9,0.5,1.7,1.2,2.7,1.6c0.9,0.4,1.7,0.1,1.8-0.8
	c0.2-1.7-0.2-3.2-1.4-4.5c1.2-1.7,2.7-3.1,4.6-4c0.9-0.4,1.5,0,1.7,0.9c0.3,1.4,0,2.7-0.4,4c-2.4,7.6-6.1,14.3-11.8,20
	c-2.3,2.3-5.3,3.7-8.3,5c-5,2.1-10.2,3.3-15.5,4.1c-2.3,0.3-4.7,0.6-7,0.8c-0.7,0.1-0.6,0.4-0.5,0.8c0.3,1.7,0.4,3.3,0.4,5
	c0,4.1-4.2,7.7-7.3,7.7c-0.2-1.5-0.8-1.9-1.8-1.3c-0.4,0.3-0.5,0.8-0.8,1.1c-0.3-0.1-0.7-0.2-1-0.3c0-0.3,0.2-0.4,0.3-0.7
	c0.1-0.5,0.3-1.1-0.2-1.5c-0.4-0.3-1-0.3-1.4,0.1c-0.3,0.2-0.5,0.5-0.8,0.7c-0.2-0.3-0.4-0.5-0.7-0.8c0.2-0.2,0.5-0.5,0.7-0.7
	c0.3-0.4,0.4-0.8,0.2-1.2c-0.2-0.4-0.6-0.5-1-0.5c-0.2,0-0.3,0-0.5,0c0-0.2,0-0.5-0.1-0.7c0,0,0,0,0,0c0.2-1.1,0.6-2,1.1-2.9
	c0.7-1.2,1.1-2.4,1.3-3.8c0.1-0.5-0.1-0.6-0.5-0.6c-1.8,0-3.5,0-5.3,0c-0.6,0-0.7,0.2-0.6,0.7c0.3,1.5,0.4,3.1,0.1,4.7
	c-0.5,3-3.4,5.7-6.5,6c0-0.2-0.1-0.3-0.1-0.5c0-0.4-0.1-0.8-0.6-0.9c-0.4-0.1-0.8,0.1-1.1,0.4c-0.3,0.2-0.4,0.5-0.5,0.8
	c-0.3-0.1-0.7-0.2-1-0.2c0.1-0.3,0.3-0.6,0.3-0.9c0.1-0.4,0.1-0.9-0.3-1.1c-0.4-0.2-0.8-0.2-1.2,0.1c-0.3,0.2-0.5,0.5-0.7,0.7
	c-0.2-0.2-0.4-0.5-0.6-0.7c0.6-0.5,1.1-1,0.7-1.8c-0.2-0.6-0.9-0.4-1.3-0.4c-0.1-1.3,0.4-2.4,1.1-3.5c0.6-0.9,0.8-1.9,1-3
	c0.1-0.6-0.3-0.6-0.7-0.6c-4-0.1-8-0.1-12-0.2c-5.9-0.1-11.7-0.3-17.6-0.8c-0.6-0.1-1.2-0.1-1.8-0.2c-0.4,0-0.5,0.1-0.5,0.6
	c0.2,1.8,0.5,3.7,0.6,5.6c0,4-3.9,7.6-7,7.9c-0.2,0-0.3,0-0.5,0c0-0.1,0-0.3,0-0.4c0-0.5-0.1-0.9-0.6-1.1c-0.5-0.1-1,0-1.3,0.4
	c-0.2,0.3-0.4,0.6-0.6,0.9c-0.1,0-0.2,0-0.3,0c0,0,0,0,0,0l0,0c-0.2-0.1-0.3-0.2-0.5-0.2c0.1-0.4,0.2-0.8,0.3-1.2
	c0-0.4,0-0.8-0.4-1.1c-0.4-0.2-0.9-0.2-1.2,0.1c-0.3,0.2-0.5,0.5-0.8,0.8c-0.2-0.2-0.5-0.5-0.7-0.7c0.2-0.2,0.4-0.4,0.5-0.6
	c0.4-0.5,0.5-1.4,0.1-1.7c-0.4-0.3-0.8-0.1-1.2-0.2c-0.1-1.2,0.2-2.3,0.8-3.2c1.4-2.1,1.7-4.5,1.7-7c0-0.4-0.2-0.6-0.6-0.6
	c-1.5-0.3-2.9-0.7-4.4-1.1c-0.7-0.2-0.8,0-0.7,0.6c0.2,1.4,0.4,2.8,0.5,4.2c0.4,3.9-2,6.9-5.4,8.1c-0.4,0.2-0.9,0.2-1.3,0.3
	c-0.1-0.5,0.1-1.2-0.7-1.4c-0.8-0.2-1.2,0.3-1.5,0.9c0,0.1-0.1,0.1-0.1,0.2c-0.3-0.1-0.6-0.1-0.9-0.2c0.1-0.3,0.2-0.6,0.3-0.9
	c0.1-0.4,0.1-0.8-0.3-1.1c-0.4-0.2-0.8-0.2-1.2,0c-0.3,0.2-0.5,0.5-0.8,0.7c-0.2-0.2-0.3-0.4-0.5-0.6c0-0.1,0.1-0.2,0.1-0.3
	C31.1,203.4,31,203.3,29.3,202.9z M92.5,168.7c-1.8,0-3.2,1.4-3.2,3.3c0,1.8,1.3,3.1,3.1,3.2c1.9,0.1,3.2-1.5,3.2-3.2
	C95.7,170.2,94.2,168.8,92.5,168.7z M90.1,167.1c0-1.3-0.8-2.3-2.1-2.3c-1.1,0-2.1,1.1-2.1,2.2c0,1.2,0.9,2.2,2.1,2.2
	C89.2,169.2,90.1,168.3,90.1,167.1z M94.2,168.4c0.7,0,1.4-0.7,1.4-1.4c0-0.7-0.7-1.4-1.4-1.4c-0.8,0-1.3,0.6-1.3,1.4
	C92.9,167.9,93.4,168.4,94.2,168.4z M98.2,171.7c0.5,0.1,0.7-0.2,0.7-0.7c0-0.6-0.3-0.9-0.8-0.8c-0.5,0-0.8,0.3-0.8,0.8
	C97.3,171.5,97.6,171.7,98.2,171.7z"/>
<path fill="#F0AFAF" d="M74.6,129c0.2,3.8,0.2,7.5,0.1,11.3c-0.1,1.8,0,3.7-0.4,5.6c-0.4,1.6-1.6,3.1-3.3,2.8
	c-0.9-0.1-1.6-0.5-2.1-1.2c-1.8-2.1-3.3-4.5-4.9-6.9c-2.1-3.3-3.9-6.7-5.5-10.2c1.4-0.6,2.9-0.8,4.4-1c1.8-0.3,3.7-0.5,5.5-0.5
	c1.8-0.1,3.6-0.2,5.4,0C73.9,128.9,74.3,128.8,74.6,129z"/>
<path fill="#F0AFAF" d="M94.5,134.6c-0.5,0.3-0.6,1-0.8,1.5c-1.3,3.2-2.6,6.4-3.9,9.6c-0.6,1.5-1.6,2.8-3.3,3.4
	c-1.5,0.5-2.9,0.2-3.9-1.1c-1.2-1.5-1.6-3.2-1.9-5c-0.9-4.4-1.1-8.8-0.8-13.3c2,0.2,3.9,0.8,5.8,1.3C88.7,131.9,91.6,133,94.5,134.6
	z"/>
<path fill="#F0AFAF" d="M109.8,148.6c-3.1,2.8-6.6,5.1-10.4,6.8c-1.4,0.6-2.9,1.1-4.4,0.5c-1.9-0.7-2.6-2.1-2.2-4.1
	c1-4.8,3-9.2,5.8-13.2c0.3-0.4,0.5-0.8,0.8-1.1c1.2,0.6,2.2,1.6,3.1,2.5c2.7,2.4,4.9,5.3,7,8.2C109.7,148.2,109.7,148.4,109.8,148.6
	z"/>
<path fill="#F0AFAF" d="M52.1,132.6c0.1,0.6,0.5,1.1,0.8,1.6c1.2,2.5,2,5.1,2.2,7.9c0.1,2,0.1,4-0.6,6c-0.8,2.4-2.8,3-4.9,1.6
	c-2.2-1.4-3.8-3.3-5.5-5.2c-1.2-1.4-2.4-2.9-3.3-4.5c1.1-1.3,2.5-2.2,3.8-3.1c2-1.4,4.1-2.7,6.3-3.8
	C51.3,132.9,51.7,132.7,52.1,132.6z"/>
<path fill="#F0AFAF" d="M118.1,162.4c-2.2,1.4-4.6,2.5-7.1,3.3c-1.2,0.4-2.5,0.7-3.7-0.1c-1.3-0.9-1.8-2.7-1.2-4.4
	c0.7-1.9,1.9-3.4,3.1-4.9c1-1.3,2.2-2.3,3.4-3.5c0.7,0.8,1.2,1.7,1.7,2.7c1.2,2.2,2.3,4.3,3.6,6.4C118,162.1,118,162.2,118.1,162.4z
	"/>
<path fill="#F0AFAF" d="M13.2,99.7c1.4,0.4,2.8,0.7,4.2,1.3c0.7,0.3,1.3,0.6,1.8,1c0.9,0.9,1.4,2.4-0.1,3.4
	c-1.7,1.2-3.6,2.1-5.8,2.4c-0.2-0.5-0.2-1-0.2-1.6C13.2,104,13.2,101.8,13.2,99.7z"/>
<path fill="#F0AFAF" d="M16.1,88.7c1.7,1.1,3,2.5,4.3,4c0.6,0.7,0.8,1.5,0.2,2.4c-0.5,0.9-1.3,1.2-2.2,1.2c-1.4,0.1-2.8-0.3-4.1-0.8
	c-0.3-0.1-0.6-0.1-0.9-0.2c0.1-2.5,1.1-4.6,2.5-6.5C15.9,88.8,16,88.8,16.1,88.7z"/>
<path fill="#F0AFAF" d="M13.5,112.6c1.5,0.1,3,0.2,4.4,0.3c0.4,0.1,0.8,0.2,1.2,0.4c1.5,0.8,1.8,2.5,0.5,3.6
	c-1.7,1.5-3.7,2.4-5.9,3.2c-0.4-1.1-0.1-2.2-0.3-3.3C13.4,115.4,13.5,114,13.5,112.6z"/>
<path fill="#F0AFAF" d="M14.2,125.3c1.2-0.1,2.4,0.1,3.6,0.3c1,0.2,1.8,0.8,2,1.9c0.2,0.9-0.3,1.6-1,2.1c-1.3,1.1-2.7,2-4.2,2.7
	c-0.3-0.6-0.2-1.3-0.3-2C14.3,128.7,14.1,127,14.2,125.3z"/>
<path fill="#F0AFAF" d="M23.3,83.2c0.5,1,1,2,1.3,3.1c0.2,0.7,0.2,1.3-0.4,1.8c-0.6,0.5-1.4,0.6-2.1,0.3c-1.3-0.5-2.4-1.5-3.3-2.5
	c0.7-1,1.8-1.4,2.8-2C22.1,83.7,22.7,83.3,23.3,83.2z"/>
<path fill="#F0AFAF" d="M153,173c1.2,1.3,1.6,2.9,1.4,4.5c-0.1,1-0.7,1.3-1.7,1c-0.8-0.3-1.5-0.8-2.2-1.3c-0.2-0.1-0.4-0.2-0.5-0.3
	c0.8-1.1,1.6-2.3,2.5-3.4C152.6,173.2,152.8,173,153,173z"/>
<path fill="#F0AFAF" d="M157,167.9c1.2,1.3,1.6,2.8,1.4,4.5c-0.1,0.9-0.8,1.1-1.8,0.8c-1-0.4-1.8-1-2.7-1.6
	C154.8,170.3,155.7,169,157,167.9z"/>
<path fill="#F0AFAF" d="M148.7,178.3c0.7,1.1,1.1,2.4,0.9,3.7c-0.1,0.8-0.7,1.2-1.5,0.9c-1.2-0.4-2.2-1-3.1-1.9
	C146.3,180.2,147.5,179.3,148.7,178.3z"/>
<path fill="#F0AFAF" d="M107.1,210.2c0.3-0.2,0.5-0.5,0.8-0.7c0.4-0.3,1-0.4,1.4-0.1c0.5,0.4,0.3,1,0.2,1.5c0,0.2-0.3,0.4-0.3,0.7
	c-0.2,0.1-0.4,0.3-0.6,0.4c-0.4,0.2-0.8,0.4-1.2,0.1c-0.4-0.3-0.5-0.8-0.4-1.2C107.1,210.6,107.1,210.4,107.1,210.2z"/>
<path fill="#F0AFAF" d="M110.2,211.9c0.3-0.3,0.4-0.8,0.8-1.1c1-0.7,1.6-0.2,1.8,1.3c-0.2,0.3-0.4,0.6-0.5,0.9
	c-0.3,0.5-0.8,0.7-1.4,0.5c-0.5-0.2-0.7-0.6-0.6-1.2C110.3,212.2,110.2,212,110.2,211.9z"/>
<path fill="#F0AFAF" d="M46.3,209.6c0.3-0.3,0.5-0.6,0.8-0.8c0.4-0.3,0.8-0.3,1.2-0.1c0.4,0.2,0.4,0.7,0.4,1.1
	c0,0.4-0.2,0.8-0.3,1.2c-0.2,0-0.4,0.1-0.6,0.2c-0.4,0.3-1,0.5-1.4,0.1c-0.4-0.3-0.4-0.8-0.2-1.3C46.3,209.8,46.3,209.7,46.3,209.6z
	"/>
<path fill="#F0AFAF" d="M49.4,211.2c0.2-0.3,0.3-0.6,0.6-0.9c0.3-0.4,0.8-0.6,1.3-0.4c0.5,0.2,0.6,0.6,0.6,1.1c0,0.1,0,0.3,0,0.4
	c0,0.1-0.1,0.1-0.1,0.2c-0.2,1-1,1.4-1.6,1.3C49.3,212.7,49.4,211.9,49.4,211.2z"/>
<path fill="#F0AFAF" d="M105.8,207c0.2,0,0.3,0,0.5,0c0.4,0,0.8,0.1,1,0.5c0.2,0.4,0.1,0.8-0.2,1.2c-0.2,0.3-0.4,0.5-0.7,0.7
	c-0.1,0-0.3,0-0.4,0.1c-0.6,0.2-1.1,0.3-1.5-0.3c-0.3-0.6,0-1.1,0.4-1.5C105.2,207.4,105.5,207.2,105.8,207z"/>
<path fill="#F0AFAF" d="M45,206.4c0.4,0,0.9-0.1,1.2,0.2c0.4,0.3,0.4,1.2-0.1,1.7c-0.2,0.2-0.4,0.4-0.5,0.6c-0.2,0-0.5,0.1-0.7,0.1
	c-0.4,0.1-0.8,0.1-1.1-0.3c-0.3-0.5-0.3-0.9,0.1-1.4C44.2,206.9,44.5,206.6,45,206.4z"/>
<path fill="#F0AFAF" d="M30.4,205.9c0.3-0.2,0.5-0.5,0.8-0.7c0.4-0.3,0.8-0.3,1.2,0c0.4,0.2,0.4,0.7,0.3,1.1
	c-0.1,0.3-0.2,0.6-0.3,0.9c-0.1,0-0.1,0-0.2,0C30.6,208,30.3,207.8,30.4,205.9z"/>
<path fill="#F0AFAF" d="M33.3,207.4c0-0.1,0.1-0.1,0.1-0.2c0.3-0.6,0.7-1.1,1.5-0.9c0.7,0.2,0.6,0.9,0.7,1.4
	c-0.2,0.1-0.2,0.3-0.3,0.5c-0.3,0.6-0.7,1-1.4,0.8c-0.6-0.1-0.7-0.7-0.6-1.2C33.3,207.6,33.3,207.5,33.3,207.4z"/>
<path fill="#F0AFAF" d="M90.3,208.6c0.2-0.3,0.4-0.5,0.7-0.7c0.4-0.2,0.8-0.3,1.2-0.1c0.4,0.2,0.4,0.7,0.3,1.1
	c-0.1,0.3-0.2,0.6-0.3,0.9c-0.2,0-0.4,0.2-0.6,0.3c-0.4,0.2-0.8,0.4-1.2,0.1c-0.4-0.3-0.4-0.7-0.3-1.2
	C90.3,208.9,90.3,208.7,90.3,208.6z"/>
<path fill="#F0AFAF" d="M89.1,205.6c0.5,0,1.1-0.2,1.3,0.4c0.3,0.8-0.2,1.3-0.7,1.8c-0.6,0.1-1.3,0.5-1.7-0.3
	c-0.4-0.8,0.2-1.3,0.8-1.7C88.9,205.8,89,205.7,89.1,205.6z"/>
<path fill="#F0AFAF" d="M29.3,202.9c1.8,0.4,1.8,0.6,0.8,2.2c-0.1,0.1-0.1,0.2-0.1,0.3c-0.2-0.2-0.4-0.1-0.7,0
	c-0.4,0.1-0.9,0-1.1-0.3c-0.2-0.4-0.2-0.9,0.2-1.3C28.7,203.4,29.1,203.3,29.3,202.9z"/>
<path fill="#F0AFAF" d="M93.2,210c0.1-0.3,0.2-0.6,0.5-0.8c0.3-0.3,0.6-0.5,1.1-0.4c0.4,0.1,0.6,0.5,0.6,0.9c0,0.2,0.1,0.3,0.1,0.5
	c-0.2,0.3-0.4,0.6-0.6,0.9c-0.3,0.4-0.8,0.5-1.2,0.3c-0.4-0.2-0.6-0.7-0.4-1.2C93.2,210.3,93.2,210.1,93.2,210z"/>
<path fill="#F0AFAF" d="M105.8,206.3C105.8,206.3,105.8,206.3,105.8,206.3C105.8,206.3,105.8,206.3,105.8,206.3z"/>
<polygon fill="#F0AFAF" points="49,211.2 49,211.2 49,211.2 49,211.2 "/>
<path fill="#F0AFAF" d="M14.6,132.8C14.6,132.8,14.6,132.8,14.6,132.8C14.6,132.8,14.6,132.8,14.6,132.8z"/>
<path fill="#7ECDC7" d="M92.5,168.7c1.7,0,3.2,1.5,3.1,3.3c0,1.7-1.3,3.3-3.2,3.2c-1.8-0.1-3.1-1.4-3.1-3.2
	C89.3,170.1,90.7,168.7,92.5,168.7z"/>
<path fill="#7ECDC7" d="M90.1,167.1c0,1.2-0.9,2.1-2.1,2.1c-1.2,0-2.1-0.9-2.1-2.2c0-1.1,1-2.2,2.1-2.2
	C89.3,164.9,90.1,165.8,90.1,167.1z"/>
<path fill="#7ECDC7" d="M94.2,168.4c-0.8,0-1.3-0.5-1.3-1.4c0-0.8,0.5-1.4,1.3-1.4c0.7,0,1.4,0.7,1.4,1.4
	C95.6,167.7,94.9,168.4,94.2,168.4z"/>
<path fill="#7ECDC7" d="M98.2,171.7c-0.6,0-0.9-0.2-0.9-0.7c0-0.5,0.3-0.8,0.8-0.8c0.5,0,0.9,0.3,0.8,0.8
	C98.9,171.4,98.7,171.7,98.2,171.7z"/>
<ellipse transform="matrix(0.9505 -0.3108 0.3108 0.9505 -26.5987 15.3147)" cx="34.8" cy="91.1" rx="1.4" ry="2.1"/>
<ellipse transform="matrix(0.9505 -0.3108 0.3108 0.9505 -25.4604 16.7769)" cx="39.9" cy="88.3" rx="1.4" ry="2.1"/>
</svg>
