<?xml version="1.0" encoding="utf-8"?>
<!-- Generator: Adobe Illustrator 17.1.0, SVG Export Plug-In . SVG Version: 6.00 Build 0)  -->
<!DOCTYPE svg PUBLIC "-//W3C//DTD SVG 1.1//EN" "http://www.w3.org/Graphics/SVG/1.1/DTD/svg11.dtd">
<svg version="1.1" id="Capa_1" xmlns="http://www.w3.org/2000/svg" xmlns:xlink="http://www.w3.org/1999/xlink" x="0px" y="0px"
	 viewBox="0 0 172.6 270" enable-background="new 0 0 172.6 270" xml:space="preserve">
<g id="JwoxGm_1_">
	<g>
		<path fill="#FEFFFE" d="M100.6,181.7L100.6,181.7c0.9-0.4,1.7-0.9,2.5-1.5c5.4-3.6,10-8.1,14.6-12.6c4.9-4.8,9.6-9.8,14.8-14.3
			c7-6,14.5-10.8,23.9-11.9c1.4-0.2,2.8-0.5,4-1.5c0.1,0,0.1,0,0.2,0c1.7-0.9,2.1-2.7,0.8-4.6c-1.2-1.9-3-3.3-4.8-4.5
			c-5.5-3.8-11.5-6.6-17.6-9.2c-2-0.8-4.1-1.6-6.3-2.4c0.5-0.2,0.9-0.3,1.2-0.5c0.4-0.3,0.7-0.7,0.5-1.3c-0.2-0.5-0.6-0.7-1.1-0.6
			c-0.4,0-0.6-0.1-0.8-0.3c0.2-0.2,0.5-0.5,0.7-0.8c0.2-0.4,0.4-0.8,0.1-1.2c-0.3-0.4-0.7-0.5-1.2-0.3c-0.3,0.1-0.6,0.2-0.9,0.3
			c-0.1-0.2-0.2-0.4-0.2-0.6c0.1-0.5,0.2-1-0.3-1.3c-0.5-0.3-1-0.1-1.4,0.2c-0.2,0.2-0.4,0.5-0.6,0.7c-1.2-0.1-2.2,0.4-3.2,0.9
			c-5.3,3-10.9,5.5-16.8,7.2c-2.7,0.7-5.4,1.3-8.2,0.8c-2.5-0.4-4.1-1.8-4.6-4.3c-0.3-1.4-0.2-2.9-0.1-4.3c0.4-3.8,1.4-7.4,2.4-11.1
			c1-3.8,1.9-7.5,1.7-11.4c-0.1-2-0.6-3.9-1.7-5.6c-0.7-1-1.2-2.1-1.3-3.3c-0.2-1.5,0-3,1.1-4.2c0.5-0.5,1.1-0.8,1.6-1.3
			c1.1-1.1,2.3-2.1,3-3.5c0.8-1.6,0.4-2.5-1.3-2.9c-0.6-0.1-1.1-0.2-1.7-0.2c-5.1-0.1-10.1,1-15,2.2c-4.5,1.1-8.7,3-12.7,5.3
			c-2.8,1.6-5.7,3.3-8.1,5.6c-0.8,0.7-1.7,1.3-2.8,1.7c-1.9,0.8-3.9,1.4-5.9,2c-2.4,0.8-4.8,1.4-7.1,2.6c-2.3,1.2-3.9,3-4.1,5.7
			c-0.1,2.8,0.3,5.6,1.6,8.1c0.9,1.8,2.4,3.1,4.4,3.6c2.7,0.7,5.5,1.1,8.3,1.3c4.1,0.2,8.1-0.2,12-1.4c3.2-0.9,6.3-2.1,8.7-4.5
			c0.2-0.2,0.5-0.4,0.9-0.4c-0.1,0.2-0.1,0.3-0.1,0.5c-1,2.2-2.6,4.1-4.5,5.7c-0.7,0.6-1.4,1.3-1.9,2.1c-0.5,0.8-0.4,1.5,0.4,2
			c1.4,0.9,3,1.3,4.6,1.7c1.1,0.3,1.2,0.4,0.6,1.5c-1.5,2.4-3.7,4.1-6.3,5.1c-3.7,1.4-7.4,1.2-11.1,0c-5.2-1.6-9.6-4.5-13.8-7.8
			c-1.2-1-2.5-2-4.1-2c0,0-0.1-0.1-0.1-0.1c-0.4-0.6-0.9-1.1-1.7-0.8c-0.8,0.3-0.5,1-0.5,1.6c-0.1,0-0.2,0.1-0.3,0.2
			c-0.3-0.1-0.5-0.2-0.8-0.3c-0.5-0.1-0.9-0.2-1.3,0.2c-0.4,0.4-0.2,0.9,0.1,1.3c0.1,0.2,0.3,0.3,0.4,0.4c0,0.2,0,0.4,0,0.6
			c-0.2,0-0.4,0-0.6,0c-0.5-0.2-0.9,0-1.2,0.4c-0.3,0.5,0,0.9,0.3,1.2c0.6,0.6,1.3,0.7,2.1,0.5c0.4,0.6,0.2,0.8-0.4,1.1
			c-6,2.1-11.7,4.7-17.3,7.6c-3,1.6-5.9,3.3-8.5,5.4c-1.2,1-2.4,2.1-3.2,3.5c-0.7,1.3-0.6,2.4,0.3,3.3c0.8,0.8,1.8,1.4,2.9,1.5
			c0.2,0.3,0.5,0.3,0.8,0.3c7.3,1.6,13.8,4.9,19.8,9.3c5.3,3.9,10.1,8.4,14.8,13.1c5.2,5.2,10.1,10.6,15.6,15.5
			c2.1,1.8,4.2,3.6,6.6,5c0.2,0.4,0.2,0.9,0.1,1.3c-0.2,1.3-0.7,2.5-1.2,3.6c-0.8,1.7-1.4,3.4-1.3,5.3c-0.1,0.1-0.2,0.1-0.4,0.2
			c-0.8,0.5-1.2,1.3-0.9,1.9c0.5,0.9,1.2,0.4,1.8,0.3c0,0.1,0.1,0.2,0.3,0.2c0,0.1,0,0.2,0,0.3c-0.2,0.7-0.6,1.5,0.2,1.9
			c0.8,0.4,1.3-0.3,1.7-0.8c0.2,0,0.4,0.1,0.5,0.1c0,0.2,0,0.3,0,0.5c0,0.5,0.1,1,0.7,1.1c0.6,0.1,1-0.2,1.2-0.7
			c0.3-0.4,0.3-0.8,0.4-1.3c1.2-0.4,1.8-1.3,2.5-2.3c1.2-1.9,2-4.1,2.6-6.3c0.2-0.7,0.4-0.7,1-0.5c1.3,0.5,2.7,0.6,4,0.6
			c2.1-0.1,4.2-0.1,6.2-0.8c0.5-0.2,0.7,0,0.8,0.5c0.4,1.7,0.7,3.4,1.4,5c0.7,1.7,1.5,3.5,3.3,4.4c0,0.2,0,0.5,0.1,0.7
			c0.2,0.7,0.5,1.4,1.3,1.3c0.9-0.1,0.9-0.8,0.9-1.5c0.2,0,0.4,0,0.7,0c0.1,0.2,0.2,0.3,0.4,0.5c0.4,0.4,0.8,0.6,1.3,0.3
			c0.4-0.2,0.5-0.7,0.4-1.1c0-0.3-0.1-0.6-0.2-0.9c0.2-0.1,0.3-0.2,0.4-0.3c0.1,0.1,0.3,0.1,0.4,0.2c0.5,0.2,0.9,0.2,1.2-0.2
			c0.3-0.4,0.2-0.9,0-1.3c-0.2-0.4-0.6-0.7-1-0.9c0-0.7,0-1.3-0.1-2c-0.2-1.6-1-3.1-1.4-4.7c-0.4-1.5-0.8-3.1-0.2-4.7
			C100.5,181.9,100.5,181.8,100.6,181.7z"/>
		<path fill="#48B8D4" d="M132.4,116.4c0.2,0.2,0.5,0.4,0.8,0.3c0.5-0.1,0.9,0.2,1.1,0.6c0.2,0.5-0.2,0.9-0.5,1.3
			c-0.3,0.3-0.7,0.4-1.2,0.5c2.2,0.8,4.2,1.6,6.3,2.4c6.2,2.5,12.2,5.3,17.6,9.2c1.8,1.3,3.6,2.6,4.8,4.5c1.2,1.9,0.9,3.7-0.8,4.6
			c0,0-0.1,0-0.2,0c-1-0.7-1.9-1.5-2.9-2.3c-5-3.9-10.1-7.7-15.7-10.7c-3.9-2.1-8-3.8-12.3-4.9c-0.5-0.1-0.8,0-1.1,0.3
			c-1,1.1-2.2,2-3.3,3c-2.9,2.5-5.9,5.1-8.8,7.6c-2.7,2.3-5.5,4.6-7.9,7.2c-0.9,0.9-1.9,1.7-2.2,3.2c-0.3,1.6-0.3,3.1-0.3,4.7
			c-0.1,6.5,0.3,13-0.7,19.5c-0.7,4.7-2,9.2-4.3,13.4c-0.2,0.3-0.4,0.6-0.3,1c0,0,0,0,0,0c-0.1,0.1-0.1,0.1-0.2,0.2
			c-0.6,1.6-0.2,3.1,0.2,4.7c0.5,1.6,1.2,3.1,1.4,4.7c0.1,0.7,0.1,1.3,0.1,2c-0.5-0.1-1-0.3-1.3,0.3c-0.3,0.6-0.1,1.1,0.3,1.5
			c0.1,0.1,0.2,0.3,0.3,0.4c-0.1,0.2-0.2,0.3-0.4,0.3c-0.1-0.1-0.2-0.1-0.3-0.2c-0.4-0.4-0.8-0.7-1.3-0.4c-0.6,0.3-0.5,0.8-0.4,1.3
			c0,0.2,0.1,0.3,0.2,0.5c-0.2,0-0.4,0-0.7,0c-0.1-0.1-0.1-0.3-0.2-0.4c-0.2-0.5-0.4-0.9-1-1c-0.7-0.1-0.9,0.4-1.1,0.9
			c-1.8-1-2.5-2.7-3.3-4.4c-0.7-1.6-1.1-3.3-1.4-5c-0.1-0.5-0.3-0.6-0.8-0.5c-2,0.7-4.1,0.7-6.2,0.8c-1.3,0-2.7-0.1-4-0.6
			c-0.6-0.2-0.8-0.1-1,0.5c-0.6,2.2-1.4,4.3-2.6,6.3c-0.6,1-1.3,1.9-2.5,2.3c-0.2-0.5-0.3-1-0.9-1c-0.5,0-0.9,0.3-1.2,0.8
			c-0.1,0.2-0.2,0.3-0.2,0.4c-0.2,0-0.4-0.1-0.5-0.1c0.2-0.6,0.4-1.3-0.2-1.7c-0.6-0.4-1.1,0.1-1.6,0.4c0,0-0.1,0-0.1,0
			c-0.1,0-0.2-0.1-0.3-0.2c0.1-0.2,0.3-0.3,0.4-0.5c0.3-0.4,0.5-0.9,0.3-1.4c-0.2-0.5-0.7-0.5-1.2-0.5c-0.1-1.9,0.5-3.6,1.3-5.3
			c0.5-1.2,1-2.3,1.2-3.6c0.1-0.5,0.1-0.9-0.1-1.3c0-0.7-0.3-1.2-0.6-1.7c-0.5-0.9-1.1-1.9-1.6-2.8c-3.4-6.7-4.2-13.8-3.8-21.2
			c0.2-3.9,0.4-7.8-0.3-11.7c-0.5-3.1-1.9-5.8-4.3-8c-2.6-2.4-5.4-4.7-8-7.1c-3.5-3.1-6.9-6.3-10.2-9.7c-0.3-0.3-0.6-0.4-1-0.2
			c-8,2.9-14.9,7.6-21.2,13.1c-2.2,2-4.4,4.1-6.6,6.1c-1.2-0.1-2.1-0.7-2.9-1.5c-0.9-0.9-1-2-0.3-3.3c0.8-1.4,2-2.5,3.2-3.5
			c2.6-2.1,5.5-3.8,8.5-5.4c5.6-2.9,11.3-5.5,17.3-7.6c0.6-0.2,0.9-0.5,0.4-1.1c0.5-0.5,0.5-1.1,0-1.6c-0.2-0.2-0.5-0.4-0.7-0.6
			c0-0.2,0-0.4,0-0.6c0.6,0.4,1.2,0.6,1.8,0.1c0.6-0.6,0.1-1.1-0.2-1.6c0,0,0-0.1,0-0.2c0-0.1,0.1-0.2,0.3-0.2
			c0.3,0.3,0.6,0.6,0.9,0.8c0.3,0.2,0.7,0.3,1.1,0c0.4-0.3,0.5-0.6,0.4-1c0-0.2-0.1-0.3-0.1-0.5c1.7,0,2.9,1,4.1,2
			c4.2,3.3,8.6,6.2,13.8,7.8c3.7,1.1,7.4,1.4,11.1,0c2.7-1,4.8-2.7,6.3-5.1c0.6-1,0.6-1.1-0.6-1.5c-1.6-0.4-3.2-0.8-4.6-1.7
			c-0.8-0.5-0.9-1.2-0.4-2c0.5-0.8,1.2-1.4,1.9-2.1c1.8-1.6,3.4-3.4,4.5-5.7c0.1-0.1,0.1-0.3,0.1-0.5c-0.4,0-0.6,0.2-0.9,0.4
			c-2.4,2.5-5.5,3.6-8.7,4.5c-3.9,1.2-7.9,1.6-12,1.4c-2.8-0.1-5.5-0.6-8.3-1.3c-2-0.5-3.5-1.8-4.4-3.6c-1.3-2.6-1.7-5.3-1.6-8.1
			c0.1-2.7,1.8-4.5,4.1-5.7c2.2-1.2,4.7-1.8,7.1-2.6c2-0.6,4-1.2,5.9-2c1-0.4,2-0.9,2.8-1.7c2.4-2.3,5.2-4,8.1-5.6
			c4-2.3,8.1-4.3,12.7-5.3c4.9-1.2,9.9-2.3,15-2.2c0.6,0,1.1,0.1,1.7,0.2c1.7,0.4,2.1,1.4,1.3,2.9c-0.7,1.4-1.9,2.4-3,3.5
			c-0.5,0.5-1.1,0.8-1.6,1.3c-1.1,1.2-1.2,2.7-1.1,4.2c0.1,1.2,0.7,2.3,1.3,3.3c1.1,1.7,1.6,3.5,1.7,5.6c0.2,3.9-0.8,7.7-1.7,11.4
			c-0.9,3.7-2,7.3-2.4,11.1c-0.2,1.4-0.2,2.9,0.1,4.3c0.6,2.5,2.1,3.9,4.6,4.3c2.8,0.4,5.5-0.1,8.2-0.8c5.9-1.6,11.5-4.1,16.8-7.2
			c1-0.6,2-1,3.2-0.9c-0.1,0.5-0.2,1.1,0.2,1.4c0.4,0.3,0.9,0.2,1.3,0c0.4-0.2,0.6-0.7,0.8-1.1c0.1,0.2,0.2,0.4,0.2,0.6
			c0,0.1,0,0.1,0,0.2c-0.5,0.5-0.7,1-0.4,1.6c0.3,0.6,0.9,0.4,1.5,0.3C132.2,116.4,132.3,116.4,132.4,116.4z M69.4,149.8
			c-0.1,0.8,0.2,1.7,0.2,2.7c-0.1,1.5,0.2,3,0.4,4.5c0.5,3.4,1.4,6.6,2.8,9.7c1.8,4,4.2,7.4,7.9,9.9c2.2,1.4,4.5,2.1,7.2,1.6
			c3.8-0.6,6.5-3,8.7-6c3.7-4.8,4.4-10.4,4.5-16.2c0-2-0.1-4-0.5-5.9c-0.6-3.5-1.5-7-3.4-10c-1.3-2.1-3-3.9-5.3-5
			c-2.9-1.3-5.8-1.3-8.8-0.5c-3.4,0.9-6.5,2.4-9.2,4.7C70.6,142,69.3,145.5,69.4,149.8z M93.4,96.5c1.3,0,2.2-0.9,2.2-2.2
			c0-1.3-0.9-2.3-2.2-2.2c-1.2,0-2.2,1-2.2,2.1C91.2,95.6,91.9,96.6,93.4,96.5z M71.4,85.3c0-0.8-0.1-1.4-0.8-1.6
			c-0.7-0.2-1.1,0.3-1.4,0.8c-0.4,0.7-0.7,1.5-0.4,2.3c0.3,0.9,1.1,1.1,1.7,0.5C71.1,86.7,71.4,86,71.4,85.3z M76.4,86.8
			c0-0.7-0.2-1.2-0.6-1.4c-0.4-0.2-0.7-0.1-1,0.1c-0.9,0.5-1.4,2.2-0.9,3.1c0.3,0.7,1,0.8,1.5,0.4C76.1,88.4,76.4,87.7,76.4,86.8z
			 M91.1,88.3c0,0.8,0.4,1.3,1,1.3c0.8,0,1.4-0.5,1.4-1.3c0-0.8-0.5-1.3-1.3-1.3C91.4,87.1,91.1,87.5,91.1,88.3z M97.1,89.9
			c0-0.6-0.2-1-0.9-1c-0.6,0-0.8,0.3-0.9,0.8c0,0.6,0.3,1,0.9,1C96.8,90.8,97.2,90.6,97.1,89.9z"/>
		<path fill="#484991" d="M100.6,181.7c-0.1-0.4,0.1-0.7,0.3-1c2.4-4.2,3.6-8.7,4.3-13.4c1-6.5,0.6-13,0.7-19.5c0-1.6,0-3.1,0.3-4.7
			c0.2-1.4,1.3-2.3,2.2-3.2c2.5-2.6,5.2-4.9,7.9-7.2c3-2.5,5.9-5,8.8-7.6c1.1-1,2.3-1.9,3.3-3c0.3-0.3,0.6-0.4,1.1-0.3
			c4.3,1.2,8.4,2.9,12.3,4.9c5.6,3,10.7,6.7,15.7,10.7c1,0.8,1.8,1.6,2.9,2.3c-1.2,0.9-2.6,1.3-4,1.5c-9.4,1.2-16.9,6-23.9,11.9
			c-5.2,4.5-10,9.5-14.8,14.3c-4.6,4.5-9.2,9-14.6,12.6C102.2,180.8,101.5,181.4,100.6,181.7z"/>
		<path fill="#484991" d="M13.7,138.7c2.2-2,4.3-4.1,6.6-6.1c6.3-5.6,13.2-10.3,21.2-13.1c0.5-0.2,0.7-0.1,1,0.2
			c3.2,3.4,6.7,6.5,10.2,9.7c2.6,2.4,5.4,4.7,8,7.1c2.4,2.1,3.7,4.9,4.3,8c0.7,3.9,0.5,7.8,0.3,11.7c-0.3,7.4,0.4,14.5,3.8,21.2
			c0.5,1,1.1,1.9,1.6,2.8c0.3,0.5,0.6,1.1,0.6,1.7c-2.4-1.4-4.5-3.2-6.6-5c-5.5-4.8-10.5-10.3-15.6-15.5c-4.7-4.7-9.4-9.2-14.8-13.1
			c-6-4.4-12.5-7.7-19.8-9.3C14.3,139,13.9,138.9,13.7,138.7z"/>
		<path fill="#4A4D90" d="M43.3,110.9c0,0.2,0.1,0.3,0.1,0.5c0.1,0.4,0,0.8-0.4,1c-0.4,0.3-0.8,0.2-1.1,0c-0.3-0.2-0.6-0.6-0.9-0.8
			c0-0.6-0.3-1.3,0.5-1.6c0.8-0.3,1.3,0.3,1.7,0.8C43.2,110.8,43.2,110.9,43.3,110.9z"/>
		<path fill="#4A4D90" d="M132.4,116.4c-0.1,0-0.2,0-0.3,0c-0.5,0.1-1.1,0.3-1.5-0.3c-0.3-0.6-0.1-1.1,0.4-1.6c0,0,0-0.1,0-0.2
			c0.3-0.1,0.6-0.2,0.9-0.3c0.5-0.1,0.9-0.1,1.2,0.3c0.3,0.4,0.1,0.8-0.1,1.2C132.8,115.9,132.6,116.1,132.4,116.4z"/>
		<path fill="#4A4D90" d="M72.2,196.1c0.1-0.1,0.2-0.3,0.2-0.4c0.2-0.5,0.6-0.8,1.2-0.8c0.6,0,0.7,0.5,0.9,1c0,0.5-0.1,0.9-0.4,1.3
			c-0.3,0.5-0.7,0.8-1.2,0.7c-0.6-0.1-0.7-0.6-0.7-1.1C72.2,196.5,72.2,196.3,72.2,196.1z"/>
		<path fill="#4A4D90" d="M39.2,114.1c0.2,0.2,0.5,0.4,0.7,0.6c0.5,0.5,0.5,1.1,0,1.6c-0.8,0.2-1.5,0.1-2.1-0.5
			c-0.3-0.3-0.6-0.7-0.3-1.2c0.2-0.4,0.6-0.6,1.2-0.4C38.7,114.2,39,114.1,39.2,114.1z"/>
		<path fill="#4A4D90" d="M101.4,195.4c-0.1-0.1-0.2-0.3-0.3-0.4c-0.4-0.4-0.6-1-0.3-1.5c0.3-0.6,0.8-0.4,1.3-0.3
			c0.4,0.2,0.8,0.5,1,0.9c0.2,0.4,0.3,0.9,0,1.3c-0.3,0.4-0.8,0.4-1.2,0.2C101.7,195.5,101.5,195.5,101.4,195.4z"/>
		<path fill="#4A4D90" d="M69,192.2c0.4,0,0.9,0,1.2,0.5c0.2,0.5,0,1-0.3,1.4c-0.1,0.2-0.3,0.3-0.4,0.5c-0.6,0.1-1.3,0.6-1.8-0.3
			c-0.3-0.6,0.1-1.4,0.9-1.9C68.8,192.3,68.9,192.2,69,192.2z"/>
		<path fill="#4A4A90" d="M130.8,113.8c-0.2,0.4-0.4,0.8-0.8,1.1c-0.4,0.2-0.9,0.3-1.3,0c-0.5-0.4-0.3-0.9-0.2-1.4
			c0.2-0.2,0.4-0.5,0.6-0.7c0.4-0.4,0.9-0.5,1.4-0.2C131,112.8,131,113.3,130.8,113.8z"/>
		<path fill="#4A4D90" d="M40.7,111.8c0,0.1,0,0.1,0,0.2c0.3,0.5,0.9,1.1,0.2,1.6c-0.5,0.5-1.2,0.3-1.8-0.1
			c-0.1-0.1-0.3-0.3-0.4-0.4c-0.3-0.4-0.4-0.9-0.1-1.3c0.3-0.4,0.8-0.4,1.3-0.2C40.2,111.6,40.4,111.7,40.7,111.8z"/>
		<path fill="#4A4A90" d="M69.8,194.7C69.8,194.7,69.8,194.8,69.8,194.7c0.6-0.3,1.1-0.8,1.7-0.4c0.6,0.4,0.4,1.1,0.2,1.7
			c-0.5,0.6-0.9,1.3-1.7,0.8c-0.8-0.4-0.4-1.2-0.2-1.9C69.7,194.9,69.8,194.8,69.8,194.7z"/>
		<path fill="#4A4D90" d="M96.3,196.5c0.2-0.5,0.4-0.9,1.1-0.9c0.6,0.1,0.8,0.5,1,1c0,0.1,0.1,0.3,0.2,0.4c0,0.7,0,1.4-0.9,1.5
			c-0.8,0.1-1.1-0.7-1.3-1.3C96.3,196.9,96.3,196.7,96.3,196.5z"/>
		<path fill="#4A4D90" d="M99.2,197c-0.1-0.2-0.1-0.3-0.2-0.5c0-0.5-0.2-1.1,0.4-1.3c0.5-0.2,1,0,1.3,0.4c0.1,0.1,0.2,0.1,0.3,0.2
			c0.1,0.3,0.2,0.6,0.2,0.9c0,0.4,0,0.9-0.4,1.1c-0.5,0.2-0.9,0.1-1.3-0.3C99.4,197.3,99.3,197.1,99.2,197z"/>
		<path fill="#484991" d="M100.4,181.9c0.1-0.1,0.1-0.1,0.2-0.2C100.5,181.8,100.5,181.9,100.4,181.9z"/>
		<path fill="#CED9E9" d="M69.4,149.8c-0.1-4.3,1.3-7.8,4.5-10.5c2.7-2.3,5.8-3.8,9.2-4.7c3-0.8,5.9-0.8,8.8,0.5
			c2.3,1.1,4,2.9,5.3,5c1.9,3.1,2.8,6.5,3.4,10c0.3,2,0.5,4,0.5,5.9c-0.1,5.8-0.9,11.4-4.5,16.2c-2.2,3-4.9,5.3-8.7,6
			c-2.6,0.4-5-0.2-7.2-1.6c-3.7-2.4-6.1-5.9-7.9-9.9c-1.4-3.1-2.3-6.4-2.8-9.7c-0.2-1.5-0.5-3-0.4-4.5
			C69.5,151.5,69.2,150.6,69.4,149.8z"/>
		<path fill="#597BB8" d="M93.4,96.5c-1.5,0.1-2.2-0.9-2.2-2.3c-0.1-1.2,1-2.1,2.2-2.1c1.3,0,2.3,0.9,2.2,2.2
			C95.6,95.6,94.6,96.5,93.4,96.5z"/>
		<path fill="#101019" d="M71.4,85.3c0,0.7-0.3,1.4-0.9,2c-0.7,0.6-1.4,0.4-1.7-0.5c-0.3-0.8,0-1.6,0.4-2.3c0.3-0.5,0.8-1,1.4-0.8
			C71.3,83.9,71.4,84.5,71.4,85.3z"/>
		<path fill="#101019" d="M76.4,86.8c0,0.9-0.3,1.6-1,2.2c-0.6,0.5-1.2,0.3-1.5-0.4c-0.4-0.9,0.1-2.6,0.9-3.1c0.3-0.2,0.7-0.3,1-0.1
			C76.2,85.6,76.4,86.1,76.4,86.8z"/>
		<path fill="#597BB8" d="M91.1,88.3c0-0.9,0.3-1.3,1.1-1.3c0.8,0,1.3,0.5,1.3,1.3c0,0.8-0.6,1.3-1.4,1.3
			C91.5,89.6,91.1,89.1,91.1,88.3z"/>
		<path fill="#597BB8" d="M97.1,89.9c0.1,0.6-0.3,0.9-0.9,0.9c-0.6,0-0.9-0.4-0.9-1c0-0.6,0.3-0.8,0.9-0.8
			C96.9,89,97.2,89.3,97.1,89.9z"/>
	</g>
</g>
</svg>
