<?xml version="1.0" encoding="utf-8"?>
<!-- Generator: Adobe Illustrator 17.1.0, SVG Export Plug-In . SVG Version: 6.00 Build 0)  -->
<!DOCTYPE svg PUBLIC "-//W3C//DTD SVG 1.1//EN" "http://www.w3.org/Graphics/SVG/1.1/DTD/svg11.dtd">
<svg version="1.1" id="Capa_1" xmlns="http://www.w3.org/2000/svg" xmlns:xlink="http://www.w3.org/1999/xlink" x="0px" y="0px"
	 viewBox="0 0 172.6 270" enable-background="new 0 0 172.6 270" xml:space="preserve">
<path fill="#FFFFFE" d="M27.5,149.6L27.5,149.6c-0.2,0.4-0.5,0.5-0.8,0.7c-0.4,0.1-0.7,0.4-0.7,0.9c0,0.5,0.3,0.7,0.7,0.8
	c0.3,0.1,0.6,0.1,0.9,0.1c0,0.1,0.1,0.2,0.1,0.3c0,0.3-0.3,0.4-0.5,0.6c-0.3,0.3-0.5,0.5-0.3,1c0.2,0.5,0.6,0.5,1,0.5
	c0.5,0.1,0.9-0.2,1.4-0.3c1.6,0.8,3.4,0.7,5.1,0.4c2.3-0.4,4.4-1.1,6.5-1.9c0.4-0.2,0.6-0.2,0.7,0.3c0.2,0.6,0.4,1.2,0.6,1.7
	c0.6,1.5,0.5,1.5-0.7,2.5c-1.9,1.5-3.9,3.1-5.8,4.6c-0.6,0.5-1.1,1-1.3,1.7c-0.3,0-0.6,0.1-0.8,0.2c-0.4,0.2-0.8,0.5-0.7,1
	c0,0.5,0.4,0.8,0.8,0.8c0.3,0,0.3,0.2,0.4,0.4c0,0.1,0,0.1,0,0.2c-0.7,0.3-0.9,0.9-0.7,1.5c0.2,0.7,0.9,0.4,1.4,0.4
	c0.2,0,0.3-0.1,0.5-0.2c0.1,0.1,0.2,0.1,0.2,0.2c-0.1,0.2-0.2,0.5-0.2,0.7c-0.1,1,0.2,1.3,1.2,1.1c0.6-0.1,0.8-0.6,1.1-1
	c0.2,0,0.4,0,0.5,0l0,0c1.9-0.3,3.4-1.3,4.8-2.5c1.3-1,2.3-2.2,3.5-3.4c0.1,0.1,0.2,0.3,0.3,0.4c3.5,4.7,8,8.2,13.2,10.9
	c3.8,1.9,7.7,3.3,11.8,4.3c0.4,0.1,0.6,0.2,0.5,0.7c-0.7,2.8-0.8,5.8-0.9,8.7c0,2.9-0.6,5.7-2.3,8.2c-0.9,1.3-1.1,2.8-1.1,4.3
	c-0.7,0.4-1.3,0.8-1.7,1.6c-0.4,1,0.1,1.8,1.2,1.8c0.5,0,0.9-0.2,1.4-0.3c0.3,0.4,0.6,0.7,0.9,1.1c0,0.4-0.1,0.7-0.1,1.1
	c0,0.5,0,1,0.5,1.3c0.5,0.3,1,0.2,1.5-0.1c0.3-0.2,0.6-0.4,0.9-0.5c0.5,0.1,0.9,0.3,1.4,0.4c0,0.3,0,0.7,0,1c0,0.5,0.2,0.9,0.8,1.2
	c0.5,0.2,1,0.1,1.4-0.2c0.6-0.4,1-1,1.1-1.7c1.5-0.1,2.9-0.4,4.2-1.3c3.9-2.5,6.1-5.9,5.7-10.7c-0.4-4.4-1-8.8-1.9-13.2
	c-0.2-1.1-0.2-1.1,0.9-1c2.5,0.2,5,0.4,7.5,0.4c0.5,0,1.2-0.2,1.4,0.1c0.3,0.3-0.2,0.9-0.3,1.4c-0.8,3.1-1,6.2-1,9.3
	c0,2.9-0.6,5.6-2.2,8c-0.9,1.3-1.2,2.8-1.3,4.4c-0.4,0.5-1.1,0.8-1.4,1.3c-0.7,1-0.3,1.9,0.9,2.2c0.6,0.1,1-0.2,1.5-0.3
	c0.3,0.4,0.6,0.8,0.9,1.2c0,0.4-0.2,0.9-0.2,1.3c0.1,1,0.9,1.5,1.8,1.1c0.4-0.2,0.7-0.4,1-0.7c0.5,0.2,1,0.3,1.5,0.5
	c0,0.3,0,0.6,0,0.9c0,0.5,0.2,1,0.7,1.2c0.5,0.2,1.1,0.1,1.5-0.3c0.5-0.4,0.9-1,1.1-1.6c0.8,0,1.6-0.1,2.4-0.4
	c3.5-1.3,7.6-5,7.5-10.4c0-2.5-0.4-4.9-0.8-7.3c-0.5-3.9-1.1-7.8-2.5-11.5c-0.2-0.4-0.1-0.5,0.4-0.6c1.2,0,2.4-0.1,3.6-0.2
	c5.6-0.4,11.3-1,16.8-1.9c7-1,14-2.3,20.8-4.2c5.8-1.6,11.2-3.8,15.3-8.4c0.5-0.6,1.1-1.1,1.4-1.8c0.4-0.8,0.2-1.2-0.6-1.4
	c-0.5-0.1-1.1-0.1-1.6-0.1c-2.5,0.2-5.1,0.5-7.6,0.8c-4.5,0.5-9,0.6-13.4-0.2c-3.7-0.7-7.2-2-10-4.6c-1.3-1.2-2.4-2.7-3.4-4.2
	c-0.1-0.2-0.1-0.3-0.2-0.5c-0.9-1.7-1.6-3.6-2.2-5.4c-0.4-1-0.6-2.1-1.3-2.9c-0.5-1.5-1.3-2.8-2-4.2c-1.5-3.1-3.3-5.9-5.3-8.7
	c-0.7-1-1.5-2.1-2.5-2.9c-0.8-1.2-1.9-2.1-3-2.9c-0.1-0.2-0.2-0.3-0.3-0.4c-2.2-1.7-4.5-3-7-4.2c-1.8-0.8-3.5-1.6-5.5-2
	c-1.8-0.5-3.6-0.9-5.4-1c-0.3-0.1-0.6-0.2-0.9-0.2c-3.6-0.2-7.3,0.1-10.9,0.5c-0.6,0.1-1.3,0-1.9,0.3c-1.7,0-3.3,0.4-5,0.8
	c-0.3,0-0.7,0.1-1,0.1c-2.7,0.8-5.4,1.6-7.8,3c-1.1,0.7-2.4,1.2-3.3,2.2c-0.2,0-0.3,0.1-0.5,0.2c-0.7,0.5-1.3,1-2,1.6
	c-0.5,0.4-0.7,0.3-1-0.2c-0.2-0.5-0.4-1-0.4-1.5c-0.5-3.2-0.1-6.4,0.5-9.6c0.9-4,1.6-8,1.8-12.1c0.2-5.8-0.9-11.2-3.6-16.4
	c-0.6-1.2-0.5-2,0.4-2.9c1-1,2.1-1.6,3.4-2.1c2-0.9,4-1.8,6-2.6c2.3-0.9,3.4-2.8,4-5c0.5-1.7-0.2-2.7-2-3c-1.5-0.2-2.9-0.1-4.4,0.1
	c-3.7,0.5-7.2,1.3-10.8,2.2c-3.3,0.8-6.5,1.6-9.7,2.5c-5.1,1.5-9.2,4.6-12.6,8.5c-2,2.3-4.4,3.8-7.3,4.7c-1.8,0.6-3.6,1.2-5.5,1.9
	c-1.7,0.6-3.3,1.3-4.7,2.4c-1.3,1.1-2.1,2.4-2.2,4.1c-0.2,2.4,0.3,4.8,1.3,7c0.9,1.9,2.3,3.3,4.5,3.8c4.2,0.9,8.4,1,12.6,0.3
	c4-0.7,7.7-2.2,11.3-3.9c0.8-0.4,1.5-0.8,2.4-0.9c0.4,0,0.8-0.1,1.1,0.3c0.3,0.4,0,0.8-0.2,1.1c-0.6,1-1.4,1.7-2.3,2.4
	c-1.2,0.8-2.5,1.3-3.8,2c-0.6,0.3-1.2,0.6-1.7,1.1c-0.7,0.7-0.7,1.2,0.2,1.7c0.4,0.2,0.8,0.4,1.3,0.6c1.8,0.6,3.6,0.9,5.5,1.2
	c0.5,0.1,0.6,0.3,0.5,0.7c-1.3,5.4-2.5,10.9-3.3,16.4c-0.5,3.9-0.9,7.8-0.7,11.7c0,0.4-0.1,0.5-0.5,0.5c-0.6,0-1.2,0.1-1.8,0.2
	c-2.3,0.3-4.5,1-6.8,1.3c-0.9,0.1-1.7,0.4-2.4,1c-0.2,0-0.4-0.1-0.6-0.2c-0.5-0.1-1,0-1.3,0.5c-0.3,0.5-0.1,0.9,0.4,1.2
	C27.4,149.5,27.5,149.6,27.5,149.6z"/>
<path fill="#DA4B58" d="M90.1,204.7c0-1.6,0.4-3,1.3-4.4c1.6-2.4,2.1-5.2,2.2-8c0-3.1,0.2-6.3,1-9.3c0.1-0.5,0.6-1,0.3-1.4
	c-0.2-0.3-0.9-0.1-1.4-0.1c-2.5-0.1-5-0.2-7.5-0.4c-1.1-0.1-1.1-0.1-0.9,1c0.9,4.4,1.5,8.7,1.9,13.2c0.4,4.8-1.8,8.2-5.7,10.7
	c-1.3,0.8-2.7,1.2-4.2,1.3c0-0.1,0-0.1,0-0.2c0.1-0.7,0-1.4-0.7-1.8c-0.6-0.3-1.2,0-1.8,0.6c-0.3,0.3-0.5,0.7-0.8,1.1
	c-0.5-0.1-0.9-0.3-1.4-0.4c-0.1-0.3,0.2-0.5,0.3-0.8c0.4-0.9,0.3-1.6-0.2-2c-0.5-0.4-1.3-0.3-2,0.2c-0.4,0.2-0.5,0.7-0.9,0.8
	c-0.3-0.4-0.6-0.7-0.9-1.1c0.5-0.5,1-0.9,1.2-1.6c0.2-1-0.5-1.7-1.4-1.6c-0.2,0-0.4,0.1-0.7,0.1c0-1.5,0.3-3,1.1-4.3
	c1.7-2.5,2.2-5.2,2.3-8.2c0-2.9,0.2-5.8,0.9-8.7c0.1-0.5-0.1-0.6-0.5-0.7c-4.1-1-8-2.4-11.8-4.3c-5.2-2.6-9.7-6.2-13.2-10.9
	c-0.1-0.1-0.2-0.2-0.3-0.4c-1.2,1.2-2.2,2.4-3.5,3.4c-1.4,1.1-2.9,2.2-4.8,2.5c0,0,0,0,0,0c-0.2,0-0.4,0-0.5,0c0-0.1,0-0.2,0-0.4
	c0-0.9-0.5-1.2-1.3-0.9c-0.3,0.1-0.6,0.3-0.8,0.4c-0.1-0.1-0.2-0.1-0.2-0.2c0-0.2,0.1-0.3,0.3-0.4c0.4-0.4,0.5-0.8,0.2-1.2
	c-0.3-0.4-0.8-0.5-1.3-0.3c-0.1,0.1-0.3,0.1-0.4,0.2c0-0.1,0-0.1,0-0.2c-0.1-0.4,0.3-0.4,0.5-0.5c0.5-0.2,1-0.6,0.9-1.2
	c-0.1-0.6-0.6-0.8-1.1-0.8c0.3-0.7,0.8-1.3,1.3-1.7c1.9-1.6,3.8-3.1,5.8-4.6c1.3-1,1.3-1,0.7-2.5c-0.2-0.6-0.5-1.1-0.6-1.7
	c-0.1-0.5-0.3-0.5-0.7-0.3c-2.1,0.8-4.3,1.6-6.5,1.9c-1.7,0.3-3.4,0.4-5.1-0.4c0.2-0.4,0.6-0.8,0.2-1.3c-0.3-0.5-0.9-0.5-1.4-0.4
	c-0.2,0-0.3-0.1-0.4-0.1c0-0.1-0.1-0.2-0.1-0.3c0.6-0.1,1.1-0.3,1.2-1c0-0.7-0.5-0.9-1-1c-0.3-0.1-0.3-0.2-0.3-0.4c0,0,0-0.1,0-0.1
	c0.2,0,0.5,0.1,0.7,0.1c0.6,0,1.1-0.1,1.3-0.7c0.2-0.6-0.3-0.8-0.6-1.2c0.7-0.6,1.5-0.9,2.4-1c2.3-0.3,4.5-1,6.8-1.3
	c0.6-0.1,1.2-0.1,1.8-0.2c0.4,0,0.5-0.1,0.5-0.5c-0.1-3.9,0.2-7.8,0.7-11.7c0.7-5.5,2-11,3.3-16.4c0.1-0.5,0.1-0.6-0.5-0.7
	c-1.9-0.3-3.7-0.6-5.5-1.2c-0.4-0.1-0.9-0.3-1.3-0.6c-0.8-0.5-0.9-1-0.2-1.7c0.5-0.4,1.1-0.7,1.7-1.1c1.3-0.7,2.6-1.2,3.8-2
	c0.9-0.6,1.7-1.4,2.3-2.4c0.2-0.3,0.4-0.7,0.2-1.1c-0.3-0.4-0.7-0.3-1.1-0.3c-0.9,0.1-1.6,0.5-2.4,0.9c-3.6,1.7-7.3,3.2-11.3,3.9
	c-4.2,0.8-8.5,0.6-12.6-0.3c-2.1-0.5-3.6-1.8-4.5-3.8c-1-2.2-1.4-4.6-1.3-7c0.1-1.7,0.9-3.1,2.2-4.1c1.4-1.1,3-1.8,4.7-2.4
	c1.8-0.6,3.6-1.3,5.5-1.9c2.9-0.9,5.2-2.4,7.3-4.7c3.5-3.9,7.6-7,12.6-8.5c3.2-1,6.5-1.7,9.7-2.5c3.6-0.9,7.2-1.7,10.8-2.2
	c1.4-0.2,2.9-0.3,4.4-0.1c1.8,0.3,2.5,1.3,2,3c-0.6,2.2-1.7,4.1-4,5c-2,0.8-4,1.7-6,2.6c-1.2,0.6-2.4,1.2-3.4,2.1
	c-1,1-1.1,1.7-0.4,2.9c2.7,5.1,3.8,10.6,3.6,16.4c-0.2,4.1-0.9,8.1-1.8,12.1c-0.7,3.2-1.1,6.4-0.5,9.6c0.1,0.5,0.2,1,0.4,1.5
	c0.2,0.5,0.5,0.6,1,0.2c0.6-0.5,1.3-1,2-1.6c0.1-0.1,0.3-0.2,0.5-0.2c0,0.3,0.2,0.5,0.4,0.7c1.4,1.9,2.9,3.7,4.6,5.3
	c1.1,1.1,2.2,2.2,3.7,2.9c1.8,0.8,3.4,0.2,4.2-1.7c0.5-1.2,0.7-2.5,0.7-3.7c0.2-3-0.4-6-1.5-8.8c1.6-0.4,3.3-0.8,5-0.8
	c0,0.3,0.1,0.6,0.2,0.9c0.7,2.3,1.6,4.6,2.5,6.9c0.7,1.7,1.3,3.4,2.3,4.9c1.1,1.6,2.7,1.9,4.1,1c0.6-0.4,1.1-1,1.4-1.7
	c0.5-1.1,0.8-2.3,1.1-3.5c0.8-3,1.5-6,2-9.1c1.8,0.2,3.6,0.5,5.4,1c-0.6,1.9-1,3.9-1.3,5.9c-0.4,2.5-0.9,5-0.5,7.6
	c0.3,2,1.3,3.4,3,3.8c1.6,0.4,2.9-0.3,4.1-1.3c1.1-0.9,1.9-2.1,2.8-3.2c1.6-2.1,3.2-4.2,4.8-6.4c1.2,0.8,2.2,1.7,3,2.9
	c-2.2,3.5-3.8,7.2-4.5,11.3c-0.2,1.3,0.1,2.6,1.3,3.5c1.6,1,3.2,0.7,4.8,0.1c2.2-0.9,4.1-2.1,6.1-3.3c0.7,1.4,1.4,2.7,2,4.2
	c-0.8,0.5-1.5,1.2-2.3,1.9c-0.9,0.8-1.7,1.8-2.2,2.9c-0.6,1.3-0.6,2.6,0.2,3.7c0.9,1.1,2.1,1.3,3.5,1.2c1.5-0.2,3-0.5,4.5-0.8
	c1,1.5,2,3,3.4,4.2c2.9,2.6,6.3,3.9,10,4.6c4.5,0.8,8.9,0.6,13.4,0.2c2.5-0.3,5.1-0.5,7.6-0.8c0.5-0.1,1.1,0,1.6,0.1
	c0.8,0.2,1.1,0.6,0.6,1.4c-0.4,0.7-0.9,1.2-1.4,1.8c-4.1,4.6-9.5,6.8-15.3,8.4c-6.8,1.9-13.8,3.2-20.8,4.2
	c-5.6,0.8-11.2,1.5-16.8,1.9c-1.2,0.1-2.4,0.1-3.6,0.2c-0.4,0-0.5,0.1-0.4,0.6c1.5,3.7,2,7.6,2.5,11.5c0.3,2.4,0.7,4.8,0.8,7.3
	c0,5.3-4,9-7.5,10.4c-0.8,0.3-1.6,0.4-2.4,0.4c0-0.1,0-0.3,0-0.4c0-0.7-0.1-1.2-0.8-1.5c-0.7-0.3-1.2,0.1-1.7,0.5
	c-0.4,0.3-0.5,0.9-0.8,1.2c-0.5-0.2-1-0.3-1.5-0.5c0.1-0.3,0.3-0.5,0.4-0.8c0.4-0.8,0.3-1.7-0.3-2.1c-0.6-0.4-1.3-0.2-2,0.4
	c-0.3,0.2-0.4,0.6-0.8,0.8c-0.3-0.4-0.6-0.8-0.9-1.2c0.4-0.4,0.9-0.7,1.1-1.3c0.5-1.1-0.1-1.9-1.2-1.9
	C90.6,204.8,90.3,204.9,90.1,204.7z M112.1,170c0.2-1.6-1.1-2.8-2.5-2.7c-1.5,0.1-2.5,0.9-2.6,2.7c-0.1,1.4,1.2,2.7,2.5,2.7
	C110.9,172.7,112.3,171.5,112.1,170z M116.4,165.7c-1.2-0.1-1.6,0.7-1.7,1.7c0,1.1,0.6,1.6,1.7,1.6c1.1,0,1.6-0.5,1.6-1.6
	C118,166.2,117.5,165.7,116.4,165.7z M37.3,91.2c-0.1,0.6,0.1,1.1,0.8,1.3c0.7,0.2,1.1-0.3,1.4-0.8c0.3-0.7,0.5-1.4,0.3-2.2
	c-0.2-0.7-0.9-0.9-1.5-0.4C37.6,89.6,37.3,90.3,37.3,91.2z M35.3,88.7c0-0.3,0-0.8-0.6-1.1c-0.5-0.2-1,0-1.3,0.4
	c-0.5,0.7-0.8,1.6-0.5,2.5c0.3,0.8,0.9,0.9,1.5,0.4C35.1,90.4,35.3,89.7,35.3,88.7z M111,163.7c-0.8,0-1.1,0.4-1.1,1.3
	c0,0.6,0.5,1.1,1.2,1.1c0.7,0,1.2-0.5,1.2-1.3C112.2,164.1,111.9,163.7,111,163.7z"/>
<path fill="#F4899B" d="M111.2,127.7c-1.6,2.1-3.2,4.2-4.8,6.4c-0.9,1.1-1.7,2.3-2.8,3.2c-1.2,1-2.5,1.7-4.1,1.3
	c-1.7-0.4-2.7-1.8-3-3.8c-0.4-2.6,0.2-5.1,0.5-7.6c0.3-2,0.8-4,1.3-5.9c1.9,0.4,3.7,1.2,5.5,2c2.5,1.1,4.8,2.5,7,4.2
	C111,127.5,111.1,127.6,111.2,127.7z"/>
<path fill="#F4899B" d="M92.9,120.2c-0.5,3.1-1.2,6.1-2,9.1c-0.3,1.2-0.6,2.4-1.1,3.5c-0.3,0.7-0.8,1.3-1.4,1.7c-1.4,1-3,0.6-4.1-1
	c-1-1.5-1.6-3.2-2.3-4.9c-0.9-2.2-1.8-4.5-2.5-6.9c-0.1-0.3-0.2-0.5-0.2-0.9c0.6-0.4,1.3-0.3,1.9-0.3c3.6-0.5,7.2-0.7,10.9-0.5
	C92.4,120,92.7,120.1,92.9,120.2z"/>
<path fill="#F4899B" d="M74.4,121.7c1.1,2.8,1.7,5.8,1.5,8.8c-0.1,1.3-0.2,2.5-0.7,3.7c-0.8,1.9-2.4,2.5-4.2,1.7
	c-1.5-0.7-2.6-1.8-3.7-2.9c-1.7-1.6-3.2-3.4-4.6-5.3c-0.2-0.2-0.4-0.4-0.4-0.7c0.9-1,2.1-1.5,3.3-2.2c2.4-1.4,5.1-2.3,7.8-3
	C73.7,121.7,74,121.7,74.4,121.7z"/>
<path fill="#F4899B" d="M122,142.2c-2,1.2-3.9,2.4-6.1,3.3c-1.6,0.6-3.2,0.9-4.8-0.1c-1.3-0.8-1.5-2.1-1.3-3.5
	c0.7-4.1,2.3-7.8,4.5-11.3c1,0.8,1.8,1.8,2.5,2.9C118.7,136.3,120.5,139.2,122,142.2z"/>
<path fill="#F4899B" d="M127.6,155.3c-1.5,0.3-3,0.7-4.5,0.8c-1.4,0.2-2.6,0-3.5-1.2c-0.9-1.1-0.8-2.5-0.2-3.7
	c0.5-1.1,1.3-2.1,2.2-2.9c0.7-0.7,1.4-1.4,2.3-1.9c0.7,0.9,0.9,1.9,1.3,2.9c0.7,1.8,1.3,3.7,2.2,5.4
	C127.6,154.9,127.6,155.1,127.6,155.3z"/>
<path fill="#F8D969" d="M67.9,200.5c0.2,0,0.4-0.1,0.7-0.1c1-0.2,1.7,0.6,1.4,1.6c-0.2,0.7-0.7,1.2-1.2,1.6
	c-0.5,0.1-0.9,0.3-1.4,0.3c-1.1-0.1-1.6-0.8-1.2-1.8C66.5,201.3,67.2,200.9,67.9,200.5z"/>
<path fill="#F8D969" d="M69.7,204.8c0.4-0.2,0.5-0.6,0.9-0.8c0.7-0.5,1.6-0.6,2-0.2c0.5,0.4,0.6,1.2,0.2,2c-0.1,0.3-0.4,0.5-0.3,0.8
	c-0.3,0.2-0.6,0.4-0.9,0.5c-0.5,0.3-1,0.3-1.5,0.1c-0.5-0.3-0.6-0.8-0.5-1.3C69.6,205.5,69.6,205.1,69.7,204.8z"/>
<path fill="#F8D969" d="M73.8,207c0.3-0.4,0.5-0.7,0.8-1.1c0.6-0.7,1.2-0.9,1.8-0.6c0.7,0.4,0.8,1,0.7,1.8c0,0.1,0,0.1,0,0.2
	c-0.1,0.7-0.6,1.3-1.1,1.7c-0.4,0.3-0.8,0.5-1.4,0.2c-0.5-0.2-0.7-0.6-0.8-1.2C73.8,207.6,73.8,207.3,73.8,207z"/>
<path fill="#F8D969" d="M90.1,204.7c0.2,0.2,0.5,0.1,0.8,0.1c1.1,0,1.7,0.8,1.2,1.9c-0.2,0.5-0.7,0.9-1.1,1.3
	c-0.5,0.1-0.9,0.5-1.5,0.3c-1.2-0.3-1.6-1.2-0.9-2.2C89.1,205.5,89.7,205.3,90.1,204.7z"/>
<path fill="#F8D969" d="M96.1,211.3c0.3-0.4,0.4-0.9,0.8-1.2c0.5-0.4,1-0.8,1.7-0.5c0.7,0.3,0.8,0.9,0.8,1.5c0,0.1,0,0.3,0,0.4
	c-0.1,0.7-0.6,1.2-1.1,1.6c-0.4,0.4-1,0.5-1.5,0.3c-0.5-0.2-0.7-0.7-0.7-1.2C96.1,211.9,96.1,211.6,96.1,211.3z"/>
<path fill="#F8D969" d="M91.9,209.2c0.4-0.2,0.5-0.5,0.8-0.8c0.7-0.6,1.5-0.8,2-0.4c0.6,0.4,0.7,1.2,0.3,2.1
	c-0.1,0.3-0.3,0.5-0.4,0.8c-0.3,0.2-0.7,0.5-1,0.7c-0.9,0.4-1.7-0.1-1.8-1.1C91.7,210,91.9,209.6,91.9,209.2z"/>
<path fill="#F8D969" d="M27.5,149.7c0,0.2,0,0.4,0.3,0.4c0.6,0.1,1.1,0.3,1,1c0,0.7-0.6,0.9-1.2,1c-0.3,0-0.6,0.1-0.9-0.1
	c-0.4-0.2-0.7-0.3-0.7-0.8c0-0.5,0.3-0.7,0.7-0.9C27.1,150.2,27.3,150,27.5,149.7z"/>
<path fill="#F8D969" d="M35.5,168.2c0.3-0.1,0.5-0.3,0.8-0.4c0.9-0.4,1.3-0.1,1.3,0.9c0,0.1,0,0.2,0,0.4c-0.3,0.4-0.6,0.8-1.1,1
	c-1,0.2-1.3-0.1-1.2-1.1C35.3,168.7,35.4,168.4,35.5,168.2z"/>
<path fill="#F8D969" d="M27.7,152.4c0.1,0.1,0.2,0.2,0.4,0.1c0.5-0.1,1-0.1,1.4,0.4c0.4,0.5,0,0.9-0.2,1.3c-0.5,0-0.9,0.3-1.4,0.3
	c-0.4-0.1-0.8-0.1-1-0.5c-0.2-0.5,0-0.7,0.3-1C27.4,152.8,27.7,152.7,27.7,152.4z"/>
<path fill="#F8D969" d="M28.9,147.9c0.3,0.3,0.8,0.6,0.6,1.2c-0.2,0.6-0.7,0.8-1.3,0.7c-0.2,0-0.5-0.1-0.7-0.1
	c-0.1-0.1-0.1-0.2-0.2-0.2c-0.5-0.3-0.7-0.7-0.4-1.2c0.3-0.5,0.8-0.6,1.3-0.5C28.5,147.7,28.7,147.9,28.9,147.9z"/>
<path fill="#F8D969" d="M34.3,163.6c0.5,0.1,1.1,0.3,1.1,0.8c0.1,0.6-0.4,0.9-0.9,1.2c-0.2,0.1-0.6,0.1-0.5,0.5
	c-0.1-0.2-0.2-0.4-0.4-0.4c-0.5-0.1-0.8-0.3-0.8-0.8c0-0.5,0.3-0.8,0.7-1C33.8,163.7,34,163.6,34.3,163.6z"/>
<path fill="#F8D969" d="M34.1,166.2c0.1-0.1,0.3-0.1,0.4-0.2c0.5-0.2,1-0.1,1.3,0.3c0.3,0.4,0.2,0.9-0.2,1.2
	c-0.1,0.1-0.3,0.2-0.3,0.4c-0.2,0.1-0.3,0.2-0.5,0.2c-0.5,0-1.2,0.3-1.4-0.4C33.2,167.1,33.4,166.5,34.1,166.2z"/>
<path fill="#F8D969" d="M38.1,169C38.1,169,38.1,169,38.1,169C38.1,169,38.1,169,38.1,169z"/>
<path fill="#FFFFFE" d="M164,204.2c0,0.1,0.1,0.1,0.1,0.2c0,0,0,0-0.1,0C164,204.4,164,204.3,164,204.2
	C164,204.2,164,204.2,164,204.2z"/>
<path fill="#FFFFFE" d="M179.6,213.9c0,0,0.1,0.1,0.1,0.1c0,0-0.1,0-0.1,0C179.6,214,179.6,213.9,179.6,213.9
	C179.6,213.9,179.6,213.9,179.6,213.9z"/>
<path fill="#634548" d="M112.1,170c0.2,1.5-1.2,2.6-2.5,2.6c-1.4,0-2.6-1.2-2.5-2.7c0.1-1.8,1.1-2.6,2.6-2.7
	C111,167.3,112.3,168.4,112.1,170z"/>
<path fill="#634548" d="M116.4,165.7c1.1,0,1.6,0.5,1.6,1.7c0,1-0.5,1.6-1.6,1.6c-1.1,0-1.7-0.6-1.7-1.6
	C114.8,166.4,115.2,165.5,116.4,165.7z"/>
<path fill="#211515" d="M37.3,91.2c0-0.9,0.3-1.6,0.9-2.1c0.6-0.5,1.3-0.3,1.5,0.4c0.3,0.8,0.1,1.5-0.3,2.2c-0.3,0.5-0.7,1-1.4,0.8
	C37.5,92.3,37.2,91.8,37.3,91.2z"/>
<path fill="#211515" d="M35.3,88.7c0,1.1-0.2,1.8-0.9,2.3c-0.6,0.5-1.2,0.3-1.5-0.4c-0.3-0.9,0-1.8,0.5-2.5c0.3-0.4,0.8-0.7,1.3-0.4
	C35.2,87.8,35.3,88.4,35.3,88.7z"/>
<path fill="#634548" d="M111,163.7c0.9,0,1.2,0.3,1.2,1.1c0,0.8-0.5,1.3-1.2,1.3c-0.6,0-1.1-0.5-1.2-1.1
	C109.9,164.1,110.2,163.7,111,163.7z"/>
</svg>
