<?xml version="1.0" encoding="utf-8"?>
<!-- Generator: Adobe Illustrator 17.1.0, SVG Export Plug-In . SVG Version: 6.00 Build 0)  -->
<!DOCTYPE svg PUBLIC "-//W3C//DTD SVG 1.1//EN" "http://www.w3.org/Graphics/SVG/1.1/DTD/svg11.dtd">
<svg version="1.1" id="Capa_1" xmlns="http://www.w3.org/2000/svg" xmlns:xlink="http://www.w3.org/1999/xlink" x="0px" y="0px"
	 viewBox="0 0 172.6 270" enable-background="new 0 0 172.6 270" xml:space="preserve">
<g>
	<path fill="#68B4D1" d="M32.9,230.8c-0.4-1.7-0.6-3.1-1-4.4c-0.3-1.1-0.6-2.5-2-2.7c-1.4-0.2-2,1-2.7,2c-2.7,4.1-4.9,8.5-6.6,13.1
		c-1.4,3.9-1.7,7.9-0.7,12c1.8,7.7,8.7,10.6,15.5,6.6c4.5-2.7,7.7-6.7,10.3-11.1c2-3.4,3.5-7.1,4-11.1c0.2-1.7-0.6-2.3-2.2-1.9
		c-0.8,0.2-1.6,0.7-2.3,1.1c-0.7,0.4-1.4,0.8-2.5,1.4c0.4-0.9,0.5-1.4,0.7-1.9c1.2-3.1,2.3-6.1,2.9-9.4c0.2-1.3,0.4-2.7-0.9-3.5
		c-1.3-0.8-2.5-0.1-3.6,0.7c-1.3,1-2.5,2.2-3.7,3.3C36.3,226.6,34.7,228.6,32.9,230.8z"/>
	<path fill="#68B4D1" d="M32.9,230.8c1.8-2.1,3.4-4.2,5.3-5.9c1.2-1.1,2.4-2.3,3.7-3.3c1-0.8,2.3-1.5,3.6-0.7
		c1.3,0.8,1.2,2.2,0.9,3.5c-0.6,3.2-1.7,6.3-2.9,9.4c-0.2,0.5-0.4,1-0.7,1.9c1.1-0.6,1.8-1,2.5-1.4c0.8-0.4,1.5-0.8,2.3-1.1
		c1.6-0.4,2.4,0.2,2.2,1.9c-0.5,4-2,7.7-4,11.1c-2.6,4.4-5.8,8.4-10.3,11.1c-6.8,4-13.7,1.1-15.5-6.6c-1-4.1-0.7-8.1,0.7-12
		c1.7-4.6,3.8-9,6.6-13.1c0.6-1,1.3-2.2,2.7-2c1.3,0.2,1.7,1.6,2,2.7C32.2,227.7,32.5,229.1,32.9,230.8z"/>
</g>
<path fill="#68B4D1" d="M21.8,177.5c-0.9-3.4-1.7-6.4-1.9-9.5c-0.1-1.5-0.5-3.2,1.1-4c1.7-0.9,2.8,0.6,3.8,1.7
	c1.7,1.8,3.1,3.8,4.5,5.9c0.3,0.4,0.6,0.8,1,1.4c0.2-1.5,0.3-2.7,0.5-4c0.1-0.7,0.4-1.4,1.1-1.7c0.8-0.3,1.3,0.2,1.8,0.8
	c5,5.3,7.8,11.6,8.3,18.9c0.1,1.2-0.1,2.5-0.4,3.7c-1.2,5.1-5.3,7.6-10.5,6.3c-3.6-0.9-6.6-2.9-8.8-5.8c-2.9-3.7-5.1-7.8-6.8-12.2
	c-0.3-0.9-0.9-1.9-0.1-2.7c0.8-0.9,1.9-0.5,2.9-0.2C19.3,176.4,20.3,176.9,21.8,177.5z"/>
<path fill="#68B4D1" d="M82.7,172.1c1.6-2.2,3.1-4.1,4.8-5.8c0.8-0.8,1.7-1.8,3-1.3c1.4,0.6,0.9,2,0.8,3.1c-0.3,1.9-0.8,3.7-1.4,5.6
	c-0.1,0.4-0.2,0.8-0.4,1.3c1-0.6,1.8-1.1,2.7-1.6c0.5-0.3,1-0.4,1.5-0.1c0.6,0.3,0.5,0.9,0.4,1.5c-0.8,5.6-3.3,10.3-7.5,14.2
	c-0.7,0.7-1.6,1.1-2.4,1.5c-3.7,1.7-7.2,0.4-8.9-3.3c-1.2-2.6-1.4-5.4-0.7-8.2c0.9-3.5,2.3-6.9,4.1-10c0.4-0.6,0.7-1.4,1.6-1.4
	c0.9,0.1,1.2,0.9,1.5,1.7C82.1,170,82.3,170.9,82.7,172.1z"/>
<path fill="#68B4D1" d="M81.1,234.4c-0.9-3.4-1.7-6.4-1.9-9.5c-0.1-1.5-0.5-3.2,1.1-4c1.7-0.9,2.8,0.6,3.8,1.7
	c1.7,1.8,3.1,3.8,4.5,5.9c0.3,0.4,0.6,0.8,1,1.4c0.2-1.5,0.3-2.7,0.5-4c0.1-0.7,0.4-1.4,1.1-1.7c0.8-0.3,1.3,0.2,1.8,0.8
	c5,5.3,7.8,11.6,8.3,18.9c0.1,1.2-0.1,2.5-0.4,3.7c-1.2,5.1-5.3,7.6-10.5,6.3c-3.6-0.9-6.6-2.9-8.8-5.8c-2.9-3.7-5.1-7.8-6.8-12.2
	c-0.3-0.9-0.9-1.9-0.1-2.7c0.8-0.9,1.9-0.5,2.9-0.2C78.6,233.3,79.6,233.8,81.1,234.4z"/>
<path fill="#68B4D1" d="M128.4,244.6c1.6-2.2,3.1-4.1,4.8-5.8c0.8-0.8,1.7-1.8,3-1.3c1.4,0.6,0.9,2,0.8,3.1
	c-0.3,1.9-0.8,3.7-1.4,5.6c-0.1,0.4-0.2,0.8-0.4,1.3c1-0.6,1.8-1.1,2.7-1.6c0.5-0.3,1-0.4,1.5-0.1c0.6,0.3,0.5,0.9,0.4,1.5
	c-0.8,5.6-3.3,10.3-7.5,14.2c-0.7,0.7-1.6,1.1-2.4,1.5c-3.7,1.7-7.2,0.4-8.9-3.3c-1.2-2.6-1.4-5.4-0.7-8.2c0.9-3.5,2.3-6.9,4.1-10
	c0.4-0.6,0.7-1.4,1.6-1.4c0.9,0.1,1.2,0.9,1.5,1.7C127.8,242.5,128,243.4,128.4,244.6z"/>
<g>
	<path fill="#68B4D1" d="M131,188.3c-0.4-1.7-0.6-3.1-1-4.4c-0.3-1.1-0.6-2.5-2-2.7c-1.4-0.2-2,1-2.7,2c-2.7,4.1-4.9,8.5-6.6,13.1
		c-1.4,3.9-1.7,7.9-0.7,12c1.8,7.7,8.7,10.6,15.5,6.6c4.5-2.7,7.7-6.7,10.3-11.1c2-3.4,3.5-7.1,4-11.1c0.2-1.7-0.6-2.3-2.2-1.9
		c-0.8,0.2-1.6,0.7-2.3,1.1c-0.7,0.4-1.4,0.8-2.5,1.4c0.4-0.9,0.5-1.4,0.7-1.9c1.2-3.1,2.3-6.1,2.9-9.4c0.2-1.3,0.4-2.7-0.9-3.5
		c-1.3-0.8-2.5-0.1-3.6,0.7c-1.3,1-2.5,2.2-3.7,3.3C134.4,184.1,132.8,186.1,131,188.3z"/>
	<path fill="#68B4D1" d="M131,188.3c1.8-2.1,3.4-4.2,5.3-5.9c1.2-1.1,2.4-2.3,3.7-3.3c1-0.8,2.3-1.5,3.6-0.7
		c1.3,0.8,1.2,2.2,0.9,3.5c-0.6,3.2-1.7,6.3-2.9,9.4c-0.2,0.5-0.4,1-0.7,1.9c1.1-0.6,1.8-1,2.5-1.4c0.8-0.4,1.5-0.8,2.3-1.1
		c1.6-0.4,2.4,0.2,2.2,1.9c-0.5,4-2,7.7-4,11.1c-2.6,4.4-5.8,8.4-10.3,11.1c-6.8,4-13.7,1.1-15.5-6.6c-1-4.1-0.7-8.1,0.7-12
		c1.7-4.6,3.8-9,6.6-13.1c0.6-1,1.3-2.2,2.7-2c1.3,0.2,1.7,1.6,2,2.7C130.4,185.2,130.7,186.6,131,188.3z"/>
</g>
<path fill="#68B4D1" d="M103.9,129.8c-0.9-3.4-1.7-6.4-1.9-9.5c-0.1-1.5-0.5-3.2,1.1-4c1.7-0.9,2.8,0.6,3.8,1.7
	c1.7,1.8,3.1,3.8,4.5,5.9c0.3,0.4,0.6,0.8,1,1.4c0.2-1.5,0.3-2.7,0.5-4c0.1-0.7,0.4-1.4,1.1-1.7c0.8-0.3,1.3,0.2,1.8,0.8
	c5,5.3,7.8,11.6,8.3,18.9c0.1,1.2-0.1,2.5-0.4,3.7c-1.2,5.1-5.3,7.6-10.5,6.3c-3.6-0.9-6.6-2.9-8.8-5.8c-2.9-3.7-5.1-7.8-6.8-12.2
	c-0.3-0.9-0.9-1.9-0.1-2.7c0.8-0.9,1.9-0.5,2.9-0.2C101.4,128.7,102.5,129.2,103.9,129.8z"/>
<path fill="#68B4D1" d="M151.2,140c1.6-2.2,3.1-4.1,4.8-5.8c0.8-0.8,1.7-1.8,3-1.3c1.4,0.6,0.9,2,0.8,3.1c-0.3,1.9-0.8,3.7-1.4,5.6
	c-0.1,0.4-0.2,0.8-0.4,1.3c1-0.6,1.8-1.1,2.7-1.6c0.5-0.3,1-0.4,1.5-0.1c0.6,0.3,0.5,0.9,0.4,1.5c-0.8,5.6-3.3,10.3-7.5,14.2
	c-0.7,0.7-1.6,1.1-2.4,1.5c-3.7,1.7-7.2,0.4-8.9-3.3c-1.2-2.6-1.4-5.4-0.7-8.2c0.9-3.5,2.3-6.9,4.1-10c0.4-0.6,0.7-1.4,1.6-1.4
	c0.9,0.1,1.2,0.9,1.5,1.7C150.7,138,150.9,138.9,151.2,140z"/>
<g>
	<path fill="#68B4D1" d="M59.4,121.7c-0.4-1.7-0.6-3.1-1-4.4c-0.3-1.1-0.6-2.5-2-2.7c-1.4-0.2-2,1-2.7,2c-2.7,4.1-4.9,8.5-6.6,13.1
		c-1.4,3.9-1.7,7.9-0.7,12c1.8,7.7,8.7,10.6,15.5,6.6c4.5-2.7,7.7-6.7,10.3-11.1c2-3.4,3.5-7.1,4-11.1c0.2-1.7-0.6-2.3-2.2-1.9
		c-0.8,0.2-1.6,0.7-2.3,1.1c-0.7,0.4-1.4,0.8-2.5,1.4c0.4-0.9,0.5-1.4,0.7-1.9c1.2-3.1,2.3-6.1,2.9-9.4c0.2-1.3,0.4-2.7-0.9-3.5
		c-1.3-0.8-2.5-0.1-3.6,0.7c-1.3,1-2.5,2.2-3.7,3.3C62.7,117.6,61.2,119.6,59.4,121.7z"/>
	<path fill="#68B4D1" d="M59.4,121.7c1.8-2.1,3.4-4.2,5.3-5.9c1.2-1.1,2.4-2.3,3.7-3.3c1-0.8,2.3-1.5,3.6-0.7
		c1.3,0.8,1.2,2.2,0.9,3.5c-0.6,3.2-1.7,6.3-2.9,9.4c-0.2,0.5-0.4,1-0.7,1.9c1.1-0.6,1.8-1,2.5-1.4c0.8-0.4,1.5-0.8,2.3-1.1
		c1.6-0.4,2.4,0.2,2.2,1.9c-0.5,4-2,7.7-4,11.1c-2.6,4.4-5.8,8.4-10.3,11.1c-6.8,4-13.7,1.1-15.5-6.6c-1-4.1-0.7-8.1,0.7-12
		c1.7-4.6,3.8-9,6.6-13.1c0.6-1,1.3-2.2,2.7-2c1.3,0.2,1.7,1.6,2,2.7C58.7,118.6,59,120,59.4,121.7z"/>
</g>
<path fill="#68B4D1" d="M48.3,68.5c-0.9-3.4-1.7-6.4-1.9-9.5c-0.1-1.5-0.5-3.2,1.1-4c1.7-0.9,2.8,0.6,3.8,1.7
	c1.7,1.8,3.1,3.8,4.5,5.9c0.3,0.4,0.6,0.8,1,1.4c0.2-1.5,0.3-2.7,0.5-4c0.1-0.7,0.4-1.4,1.1-1.7c0.8-0.3,1.3,0.2,1.8,0.8
	c5,5.3,7.8,11.6,8.3,18.9c0.1,1.2-0.1,2.5-0.4,3.7c-1.2,5.1-5.3,7.6-10.5,6.3C53.9,87,51,85,48.7,82.1c-2.9-3.7-5.1-7.8-6.8-12.2
	C41.5,69,41,68,41.8,67.2c0.8-0.9,1.9-0.5,2.9-0.2C45.8,67.4,46.8,67.9,48.3,68.5z"/>
<path fill="#68B4D1" d="M95.5,78.7c1.6-2.2,3.1-4.1,4.8-5.8c0.8-0.8,1.7-1.8,3-1.3c1.4,0.6,0.9,2,0.8,3.1c-0.3,1.9-0.8,3.7-1.4,5.6
	c-0.1,0.4-0.2,0.8-0.4,1.3c1-0.6,1.8-1.1,2.7-1.6c0.5-0.3,1-0.4,1.5-0.1c0.6,0.3,0.5,0.9,0.4,1.5c-0.8,5.6-3.3,10.3-7.5,14.2
	c-0.7,0.7-1.6,1.1-2.4,1.5c-3.7,1.7-7.2,0.4-8.9-3.3c-1.2-2.6-1.4-5.4-0.7-8.2c0.9-3.5,2.3-6.9,4.1-10c0.4-0.6,0.7-1.4,1.6-1.4
	c0.9,0.1,1.2,0.9,1.5,1.7C95,76.6,95.2,77.5,95.5,78.7z"/>
<path fill="#68B4D1" d="M138.9,34.4c-0.9-3.4-1.7-6.4-1.9-9.5c-0.1-1.5-0.5-3.2,1.1-4c1.7-0.9,2.8,0.6,3.8,1.7
	c1.7,1.8,3.1,3.8,4.5,5.9c0.3,0.4,0.6,0.8,1,1.4c0.2-1.5,0.3-2.7,0.5-4c0.1-0.7,0.4-1.4,1.1-1.7c0.8-0.3,1.3,0.2,1.8,0.8
	c5,5.3,7.8,11.6,8.3,18.9c0.1,1.2-0.1,2.5-0.4,3.7c-1.2,5.1-5.3,7.6-10.5,6.3c-3.6-0.9-6.6-2.9-8.8-5.8c-2.9-3.7-5.1-7.8-6.8-12.2
	c-0.3-0.9-0.9-1.9-0.1-2.7c0.8-0.9,1.9-0.5,2.9-0.2C136.3,33.3,137.4,33.8,138.9,34.4z"/>
<g>
	<path fill="#68B4D1" d="M94.3,26.3c-0.4-1.7-0.6-3.1-1-4.4c-0.3-1.1-0.6-2.5-2-2.7c-1.4-0.2-2,1-2.7,2c-2.7,4.1-4.9,8.5-6.6,13.1
		c-1.4,3.9-1.7,7.9-0.7,12c1.8,7.7,8.7,10.6,15.5,6.6c4.5-2.7,7.7-6.7,10.3-11.1c2-3.4,3.5-7.1,4-11.1c0.2-1.7-0.6-2.3-2.2-1.9
		c-0.8,0.2-1.6,0.7-2.3,1.1c-0.7,0.4-1.4,0.8-2.5,1.4c0.4-0.9,0.5-1.4,0.7-1.9c1.2-3.1,2.3-6.1,2.9-9.4c0.2-1.3,0.4-2.7-0.9-3.5
		c-1.3-0.8-2.5-0.1-3.6,0.7c-1.3,1-2.5,2.2-3.7,3.3C97.7,22.1,96.1,24.1,94.3,26.3z"/>
	<path fill="#68B4D1" d="M94.3,26.3c1.8-2.1,3.4-4.2,5.3-5.9c1.2-1.1,2.4-2.3,3.7-3.3c1-0.8,2.3-1.5,3.6-0.7
		c1.3,0.8,1.2,2.2,0.9,3.5c-0.6,3.2-1.7,6.3-2.9,9.4c-0.2,0.5-0.4,1-0.7,1.9c1.1-0.6,1.8-1,2.5-1.4c0.8-0.4,1.5-0.8,2.3-1.1
		c1.6-0.4,2.4,0.2,2.2,1.9c-0.5,4-2,7.7-4,11.1c-2.6,4.4-5.8,8.4-10.3,11.1c-6.8,4-13.7,1.1-15.5-6.6c-1-4.1-0.7-8.1,0.7-12
		c1.7-4.6,3.8-9,6.6-13.1c0.6-1,1.3-2.2,2.7-2c1.3,0.2,1.7,1.6,2,2.7C93.7,23.2,93.9,24.6,94.3,26.3z"/>
</g>
<path fill="#68B4D1" d="M16,98.7c-0.9-3.4-1.7-6.4-1.9-9.5c-0.1-1.5-0.5-3.2,1.1-4c1.7-0.9,2.8,0.6,3.8,1.7c1.7,1.8,3.1,3.8,4.5,5.9
	c0.3,0.4,0.6,0.8,1,1.4c0.2-1.5,0.3-2.7,0.5-4c0.1-0.7,0.4-1.4,1.1-1.7c0.8-0.3,1.3,0.2,1.8,0.8c5,5.3,7.8,11.6,8.3,18.9
	c0.1,1.2-0.1,2.5-0.4,3.7c-1.2,5.1-5.3,7.6-10.5,6.3c-3.6-0.9-6.6-2.9-8.8-5.8c-2.9-3.7-5.1-7.8-6.8-12.2c-0.3-0.9-0.9-1.9-0.1-2.7
	c0.8-0.9,1.9-0.5,2.9-0.2C13.5,97.6,14.5,98.1,16,98.7z"/>
<path fill="#68B4D1" d="M30.8,29.4c1.6-2.2,3.1-4.1,4.8-5.8c0.8-0.8,1.7-1.8,3-1.3c1.4,0.6,0.9,2,0.8,3.1c-0.3,1.9-0.8,3.7-1.4,5.6
	c-0.1,0.4-0.2,0.8-0.4,1.3c1-0.6,1.8-1.1,2.7-1.6c0.5-0.3,1-0.4,1.5-0.1c0.6,0.3,0.5,0.9,0.4,1.5c-0.8,5.6-3.3,10.3-7.5,14.2
	c-0.7,0.7-1.6,1.1-2.4,1.5c-3.7,1.7-7.2,0.4-8.9-3.3c-1.2-2.6-1.4-5.4-0.7-8.2c0.9-3.5,2.3-6.9,4.1-10c0.4-0.6,0.7-1.4,1.6-1.4
	c0.9,0.1,1.2,0.9,1.5,1.7C30.3,27.4,30.5,28.2,30.8,29.4z"/>
<g>
	<path fill="#68B4D1" d="M140.1,79.5c-0.4-1.7-0.6-3.1-1-4.4c-0.3-1.1-0.6-2.5-2-2.7c-1.4-0.2-2,1-2.7,2c-2.7,4.1-4.9,8.5-6.6,13.1
		c-1.4,3.9-1.7,7.9-0.7,12c1.8,7.7,8.7,10.6,15.5,6.6c4.5-2.7,7.7-6.7,10.3-11.1c2-3.4,3.5-7.1,4-11.1c0.2-1.7-0.6-2.3-2.2-1.9
		c-0.8,0.2-1.6,0.7-2.3,1.1c-0.7,0.4-1.4,0.8-2.5,1.4c0.4-0.9,0.5-1.4,0.7-1.9c1.2-3.1,2.3-6.1,2.9-9.4c0.2-1.3,0.4-2.7-0.9-3.5
		c-1.3-0.8-2.5-0.1-3.6,0.7c-1.3,1-2.5,2.2-3.7,3.3C143.5,75.3,141.9,77.3,140.1,79.5z"/>
	<path fill="#68B4D1" d="M140.1,79.5c1.8-2.1,3.4-4.2,5.3-5.9c1.2-1.1,2.4-2.3,3.7-3.3c1-0.8,2.3-1.5,3.6-0.7
		c1.3,0.8,1.2,2.2,0.9,3.5c-0.6,3.2-1.7,6.3-2.9,9.4c-0.2,0.5-0.4,1-0.7,1.9c1.1-0.6,1.8-1,2.5-1.4c0.8-0.4,1.5-0.8,2.3-1.1
		c1.6-0.4,2.4,0.2,2.2,1.9c-0.5,4-2,7.7-4,11.1c-2.6,4.4-5.8,8.4-10.3,11.1c-6.8,4-13.7,1.1-15.5-6.6c-1-4.1-0.7-8.1,0.7-12
		c1.7-4.6,3.8-9,6.6-13.1c0.6-1,1.3-2.2,2.7-2c1.3,0.2,1.7,1.6,2,2.7C139.5,76.4,139.7,77.7,140.1,79.5z"/>
</g>
</svg>
